solid NewPCBCase
facet normal -0.8270961403597813 0.551412124459844 -0.10888821607793187
  outer loop
    vertex 505.7940737062527 -57.147474785271605 4.6999115431633935
    vertex 504.8281485152103 -58.647434653739005 4.441085920852456
    vertex 504.79407434151744 -58.647435149653525 4.699904965825024
  endloop
endfacet
facet normal -0.7707307074847153 0.5514129113668721 -0.3192459517644986
  outer loop
    vertex 505.7940737062527 -57.147474785271605 4.6999115431633935
    vertex 504.92804893766396 -58.64743414627788 4.1999049660759
    vertex 504.8281485152103 -58.647434653739005 4.441085920852456
  endloop
endfacet
facet normal 0.3192495315509937 0.5514046541307218 -0.770735132200064
  outer loop
    vertex 564.0051378247 -58.64741043019089 3.833879564648375
    vertex 563.7639568700077 -58.647410173538745 3.7339791422223882
    vertex 563.5051371886555 -57.14741177387487 4.699911543163131
  endloop
endfacet
facet normal 0.5078528372494459 0.5514042822553822 -0.6618450069375116
  outer loop
    vertex 564.2122446057085 -58.64741091904946 3.9927981871167146
    vertex 564.0051378247 -58.64741043019089 3.833879564648375
    vertex 563.5051371886555 -57.14741177387487 4.699911543163131
  endloop
endfacet
facet normal -0.7707394344201893 0.5513970540960798 0.31925227166585973
  outer loop
    vertex 504.92804893795244 -58.64748862414644 18.13461694073722
    vertex 505.7940737062524 -57.147474304709974 17.634623515810656
    vertex 504.82814851553513 -58.64748794841514 17.893435986043684
  endloop
endfacet
facet normal -0.6618491325301622 0.5513963589671071 0.5078560633554443
  outer loop
    vertex 505.08696756041337 -58.64748913572137 18.341723721749695
    vertex 505.7940737062524 -57.147474304709974 17.634623515810656
    vertex 504.92804893795244 -58.64748862414644 18.13461694073722
  endloop
endfacet
facet normal -4.108924668458222e-07 0.554708320068429 -0.8320448783849898
  outer loop
    vertex 563.5051378251239 -58.64741016658316 3.6999049685338288
    vertex 505.7940737062527 -57.147474785271605 4.6999115431633935
    vertex 563.5051371886555 -57.14741177387487 4.699911543163131
  endloop
endfacet
facet normal -4.108924668458222e-07 0.554708320068429 -0.8320448783849898
  outer loop
    vertex 505.7940737062527 -57.147474785271605 4.6999115431633935
    vertex 563.5051378251239 -58.64741016658316 3.6999049685338288
    vertex 505.7940743410127 -58.647432655833256 3.699904966324908
  endloop
endfacet
facet normal 0.7707370476394108 0.5514029687741169 -0.31924781819642095
  outer loop
    vertex 563.5051371886555 -57.14741177387487 4.699911543163131
    vertex 564.4710636505828 -58.647412446571785 4.441085922827091
    vertex 564.3711632281679 -58.64741160679947 4.199904968131629
  endloop
endfacet
facet normal 0.6618468213340568 0.551403707411637 -0.5078510968214077
  outer loop
    vertex 563.5051371886555 -57.14741177387487 4.699911543163131
    vertex 564.3711632281679 -58.64741160679947 4.199904968131629
    vertex 564.2122446057085 -58.64741091904946 3.9927981871167146
  endloop
endfacet
facet normal -0.3192471429531184 0.5514147644781633 -0.7707288882815819
  outer loop
    vertex 505.29407434126364 -58.647433233476285 3.8338795624744306
    vertex 505.7940737062527 -57.147474785271605 4.6999115431633935
    vertex 505.5352552960399 -58.64743289034185 3.733979140019381
  endloop
endfacet
facet normal -0.6618413482915154 0.5514136458790325 -0.5078474385384474
  outer loop
    vertex 505.7940737062527 -57.147474785271605 4.6999115431633935
    vertex 505.08696756018145 -58.64743366185257 3.9927981849930045
    vertex 504.92804893766396 -58.64743414627788 4.1999049660759
  endloop
endfacet
facet normal -0.8271051277770762 0.5513978671659696 0.10889214705242295
  outer loop
    vertex 504.82814851553513 -58.64748794841514 17.893435986043684
    vertex 505.7940737062524 -57.147474304709974 17.634623515810656
    vertex 504.7940743418561 -58.647487154577156 17.63461694116108
  endloop
endfacet
facet normal 0.8271028195691529 0.5514021166796865 -0.10888816088959659
  outer loop
    vertex 563.5051371886555 -57.14741177387487 4.699911543163131
    vertex 564.5051378242589 -58.64741338113736 4.699904967710976
    vertex 564.4710636505828 -58.647412446571785 4.441085922827091
  endloop
endfacet
facet normal -0.3192511659484843 0.551395500753856 0.7707410037028897
  outer loop
    vertex 505.5352552961147 -58.64748954051334 18.60054276663829
    vertex 505.7940737062524 -57.147474304709974 17.634623515810656
    vertex 505.29407434142263 -58.64748944827708 18.500642344215244
  endloop
endfacet
facet normal -0.5078548955319943 0.5513958291509669 0.6618504700301308
  outer loop
    vertex 505.29407434142263 -58.64748944827708 18.500642344215244
    vertex 505.7940737062524 -57.147474304709974 17.634623515810656
    vertex 505.08696756041337 -58.64748913572137 18.341723721749695
  endloop
endfacet
facet normal -0.8320507570155105 0.5546995022069273 1.1416098085708195e-06
  outer loop
    vertex 504.7940724698383 -58.64747173404117 14.167267585217338
    vertex 505.7940737062524 -57.147474304709974 17.634623515810656
    vertex 505.7940737070683 -57.14747825993105 14.167267529493367
  endloop
endfacet
facet normal -0.8320507570155105 0.5546995022069273 1.1416098085708195e-06
  outer loop
    vertex 505.7940737062524 -57.147474304709974 17.634623515810656
    vertex 504.7940724698383 -58.64747173404117 14.167267585217338
    vertex 504.7940743418561 -58.647487154577156 17.63461694116108
  endloop
endfacet
facet normal 0.8271004185569734 0.5514049661293136 0.10889196917500446
  outer loop
    vertex 564.4710636513787 -58.64746232093268 17.89343598636447
    vertex 564.5051378250882 -58.64746131959515 17.63461694127631
    vertex 563.5051371886551 -57.147474413704444 17.634623515810397
  endloop
endfacet
facet normal 0.7707349213250231 0.5514040556790504 0.3192510742829305
  outer loop
    vertex 564.3711632288786 -58.64746329057972 18.134616941248357
    vertex 564.4710636513787 -58.64746232093268 17.89343598636447
    vertex 563.5051371886551 -57.147474413704444 17.634623515810397
  endloop
endfacet
facet normal 0.6618450753269222 0.5514032126436191 0.5078539094580218
  outer loop
    vertex 564.2122446062881 -58.64746416245635 18.34172372242301
    vertex 564.3711632288786 -58.64746329057972 18.134616941248357
    vertex 563.5051371886551 -57.147474413704444 17.634623515810397
  endloop
endfacet
facet normal 0.999999999999877 4.963245651697121e-07 -1.4027200972619056e-10
  outer loop
    vertex 562.5051341812947 -55.647855179408126 5.599971402160136
    vertex 562.5051349271148 -57.14742250871329 16.634625714295577
    vertex 562.5051349255641 -57.14741688824426 5.599969229711498
  endloop
endfacet
facet normal 0.999999999999877 4.963245651697121e-07 -1.4027200972619056e-10
  outer loop
    vertex 562.5051349271148 -57.14742250871329 16.634625714295577
    vertex 562.5051341812947 -55.647855179408126 5.599971402160136
    vertex 562.5051341828455 -55.64786079987139 16.63463005934627
  endloop
endfacet
facet normal -0.1088909792292378 0.5513953961556263 0.8271069288434706
  outer loop
    vertex 505.5352552961147 -58.64748954051334 18.60054276663829
    vertex 505.79407434099767 -58.64748940614433 18.634616940323944
    vertex 505.7940737062524 -57.147474304709974 17.634623515810656
  endloop
endfacet
facet normal -1.1363010001672004e-07 0.5546968594139117 0.8320525188690495
  outer loop
    vertex 505.79407434099767 -58.64748940614433 18.634616940323944
    vertex 563.5051371886551 -57.147474413704444 17.634623515810397
    vertex 505.7940737062524 -57.147474304709974 17.634623515810656
  endloop
endfacet
facet normal -1.1363010001672004e-07 0.5546968594139117 0.8320525188690495
  outer loop
    vertex 563.5051371886551 -57.147474413704444 17.634623515810397
    vertex 505.79407434099767 -58.64748940614433 18.634616940323944
    vertex 563.5051378251352 -58.64746565417478 18.634616941218137
  endloop
endfacet
facet normal -0.9999999999995155 -9.844082732404285e-07 6.753596332011163e-10
  outer loop
    vertex 506.7940737055169 -57.14747205996781 8.167267529476405
    vertex 506.79407149741735 -55.64788233385254 5.599971402160024
    vertex 506.79407224167346 -57.147417285304776 5.599969229711497
  endloop
endfacet
facet normal -0.9999999999995155 -9.844082732404285e-07 6.753596332011163e-10
  outer loop
    vertex 506.79407149741735 -55.64788233385254 5.599971402160024
    vertex 506.7940737055169 -57.14747205996781 8.167267529476405
    vertex 506.7940714989414 -55.647887954315266 16.63463005934784
  endloop
endfacet
facet normal -0.9999999999995155 -9.844082732404285e-07 6.753596332011163e-10
  outer loop
    vertex 506.7940714989414 -55.647887954315266 16.63463005934784
    vertex 506.7940737055169 -57.14747205996781 8.167267529476405
    vertex 506.79407370706775 -57.14747825993103 14.167267529493367
  endloop
endfacet
facet normal -0.9999999999995155 -9.844082732404285e-07 6.753596332011163e-10
  outer loop
    vertex 506.7940714989414 -55.647887954315266 16.63463005934784
    vertex 506.79407370706775 -57.14747825993103 14.167267529493367
    vertex 506.79407224322404 -57.147476420542695 16.634625714295577
  endloop
endfacet
facet normal 2.1221924554423877e-12 -2.8975217804760978e-06 0.9999999999958022
  outer loop
    vertex 506.7940714989414 -55.647887954315266 16.63463005934784
    vertex 562.5051349271148 -57.14742250871329 16.634625714295577
    vertex 562.5051341828455 -55.64786079987139 16.63463005934627
  endloop
endfacet
facet normal 2.1221924554423877e-12 -2.8975217804760978e-06 0.9999999999958022
  outer loop
    vertex 562.5051349271148 -57.14742250871329 16.634625714295577
    vertex 506.7940714989414 -55.647887954315266 16.63463005934784
    vertex 506.79407224322404 -57.147476420542695 16.634625714295577
  endloop
endfacet
facet normal -3.572184488514889e-13 1.4487352887772922e-06 -0.9999999999989506
  outer loop
    vertex 562.5051349255641 -57.14741688824426 5.599969229711498
    vertex 506.79407149741735 -55.64788233385254 5.599971402160024
    vertex 562.5051341812947 -55.647855179408126 5.599971402160136
  endloop
endfacet
facet normal -3.572184488514889e-13 1.4487352887772922e-06 -0.9999999999989506
  outer loop
    vertex 506.79407149741735 -55.64788233385254 5.599971402160024
    vertex 562.5051349255641 -57.14741688824426 5.599969229711498
    vertex 506.79407224167346 -57.147417285304776 5.599969229711497
  endloop
endfacet
facet normal 0.10888959945280488 0.5514016166588442 0.8271029635281334
  outer loop
    vertex 563.5051378251352 -58.64746565417478 18.634616941218137
    vertex 563.7639568702253 -58.647465385943335 18.600542767509886
    vertex 563.5051371886551 -57.147474413704444 17.634623515810397
  endloop
endfacet
facet normal 0.10888990132223907 0.5514047976950545 -0.8271008030880571
  outer loop
    vertex 563.7639568700077 -58.647410173538745 3.7339791422223882
    vertex 563.5051378251239 -58.64741016658316 3.6999049685338288
    vertex 563.5051371886555 -57.14741177387487 4.699911543163131
  endloop
endfacet
facet normal -0.10888949140444591 0.5514150723349137 -0.8270940071500718
  outer loop
    vertex 505.5352552960399 -58.64743289034185 3.733979140019381
    vertex 505.7940737062527 -57.147474785271605 4.6999115431633935
    vertex 505.7940743410127 -58.647432655833256 3.699904966324908
  endloop
endfacet
facet normal -0.5078487138654525 0.5514142779407105 -0.661839843095239
  outer loop
    vertex 505.08696756018145 -58.64743366185257 3.9927981849930045
    vertex 505.7940737062527 -57.147474785271605 4.6999115431633935
    vertex 505.29407434126364 -58.647433233476285 3.8338795624744306
  endloop
endfacet
facet normal 0.5078515397398561 0.5514024944745072 0.6618474920033683
  outer loop
    vertex 564.0051378251113 -58.64746487714594 18.500642345011503
    vertex 564.2122446062881 -58.64746416245635 18.34172372242301
    vertex 563.5051371886551 -57.147474413704444 17.634623515810397
  endloop
endfacet
facet normal 0.832049151241175 0.5547019108613371 2.371034530856652e-06
  outer loop
    vertex 563.5051371886555 -57.14741177387487 4.699911543163131
    vertex 564.5051378250882 -58.64746131959515 17.63461694127631
    vertex 564.5051378242589 -58.64741338113736 4.699904967710976
  endloop
endfacet
facet normal 0.832049151241175 0.5547019108613371 2.371034530856652e-06
  outer loop
    vertex 564.5051378250882 -58.64746131959515 17.63461694127631
    vertex 563.5051371886555 -57.14741177387487 4.699911543163131
    vertex 563.5051371886551 -57.147474413704444 17.634623515810397
  endloop
endfacet
facet normal 0.31924872175120683 0.5514019501137932 0.7707374021486998
  outer loop
    vertex 563.7639568702253 -58.647465385943335 18.600542767509886
    vertex 564.0051378251113 -58.64746487714594 18.500642345011503
    vertex 563.5051371886551 -57.147474413704444 17.634623515810397
  endloop
endfacet
facet normal -2.5395551619005325e-07 0.9999999999982803 1.8371464259054675e-06
  outer loop
    vertex 545.0051351756869 -57.64826074402716 15.634624263163232
    vertex 561.5051351741306 -57.64823995577429 6.599967778582765
    vertex 545.0051351741157 -57.648234161171594 6.599967778600905
  endloop
endfacet
facet normal -2.5395551619005325e-07 0.9999999999982803 1.8371464259054675e-06
  outer loop
    vertex 561.5051351741306 -57.64823995577429 6.599967778582765
    vertex 545.0051351756869 -57.64826074402716 15.634624263163232
    vertex 561.5051351756816 -57.64824656889246 15.634624263158202
  endloop
endfacet
facet normal 0.999999999999877 4.963245733933483e-07 -1.6901295348213653e-10
  outer loop
    vertex 507.7940707531126 -54.148246147842855 6.599977919803559
    vertex 507.79407249179866 -57.64829270043059 15.634624263174992
    vertex 507.79407249024854 -57.64824614782771 6.599967778565972
  endloop
endfacet
facet normal 0.999999999999877 4.963245733933483e-07 -1.6901295348213653e-10
  outer loop
    vertex 507.79407249179866 -57.64829270043059 15.634624263174992
    vertex 507.7940707531126 -54.148246147842855 6.599977919803559
    vertex 507.7940707546626 -54.14829270044574 15.634634404412575
  endloop
endfacet
facet normal -2.7941347120901464e-12 2.8974964527240663e-06 -0.9999999999958022
  outer loop
    vertex 561.5051351756816 -57.64824656889246 15.634624263158202
    vertex 545.0051334385507 -54.148260744042304 15.634634404400817
    vertex 561.5051334385456 -54.1482465689076 15.634634404395785
  endloop
endfacet
facet normal -2.7941347120901464e-12 2.8974964527240663e-06 -0.9999999999958022
  outer loop
    vertex 545.0051334385507 -54.148260744042304 15.634634404400817
    vertex 561.5051351756816 -57.64824656889246 15.634624263158202
    vertex 545.0051351756869 -57.64826074402716 15.634624263163232
  endloop
endfacet
facet normal -0.999999999999877 -4.96324573400024e-07 1.713169232308448e-10
  outer loop
    vertex 561.5051351756816 -57.64824656889246 15.634624263158202
    vertex 561.5051334369946 -54.14823995578943 6.599977919820352
    vertex 561.5051351741306 -57.64823995577429 6.599967778582765
  endloop
endfacet
facet normal -0.999999999999877 -4.96324573400024e-07 1.713169232308448e-10
  outer loop
    vertex 561.5051334369946 -54.14823995578943 6.599977919820352
    vertex 561.5051351756816 -57.64824656889246 15.634624263158202
    vertex 561.5051334385456 -54.1482465689076 15.634634404395785
  endloop
endfacet
facet normal -4.874156702036086e-07 0.9999999999955764 2.9341967757497945e-06
  outer loop
    vertex 506.7940707546588 -54.14829948808784 16.634634404400106
    vertex 507.7940707546626 -54.14829270044574 15.634634404412575
    vertex 507.7940707531126 -54.148246147842855 6.599977919803559
  endloop
endfacet
facet normal -4.874156702036086e-07 0.9999999999955764 2.9341967757497945e-06
  outer loop
    vertex 507.7940707546626 -54.14829270044574 15.634634404412575
    vertex 506.7940707546588 -54.14829948808784 16.634634404400106
    vertex 562.5051334385495 -54.14824557625843 16.634634404400114
  endloop
endfacet
facet normal -4.874156702036086e-07 0.9999999999955764 2.9341967757497945e-06
  outer loop
    vertex 507.7940707546626 -54.14829270044574 15.634634404412575
    vertex 562.5051334385495 -54.14824557625843 16.634634404400114
    vertex 524.2940694030301 -54.14827902163673 15.634634404407542
  endloop
endfacet
facet normal -4.874156702036086e-07 0.9999999999955764 2.9341967757497945e-06
  outer loop
    vertex 524.2940694030301 -54.14827902163673 15.634634404407542
    vertex 562.5051334385495 -54.14824557625843 16.634634404400114
    vertex 527.2940707546568 -54.14827637412393 15.634634404406567
  endloop
endfacet
facet normal -4.874156702036086e-07 0.9999999999955764 2.9341967757497945e-06
  outer loop
    vertex 524.2940694030301 -54.14827902163673 15.634634404407542
    vertex 527.2940707546568 -54.14827637412393 15.634634404406567
    vertex 527.2940707530857 -54.14824979126864 6.599977919797933
  endloop
endfacet
facet normal -4.874156702036086e-07 0.9999999999955764 2.9341967757497945e-06
  outer loop
    vertex 527.2940707546568 -54.14827637412393 15.634634404406567
    vertex 562.5051334385495 -54.14824557625843 16.634634404400114
    vertex 542.0051334385518 -54.14826339155394 15.634634404401792
  endloop
endfacet
facet normal -4.874156702036086e-07 0.9999999999955764 2.9341967757497945e-06
  outer loop
    vertex 542.0051334385518 -54.14826339155394 15.634634404401792
    vertex 562.5051334385495 -54.14824557625843 16.634634404400114
    vertex 545.0051334385507 -54.148260744042304 15.634634404400817
  endloop
endfacet
facet normal -4.874156702036086e-07 0.9999999999955764 2.9341967757497945e-06
  outer loop
    vertex 542.0051334385518 -54.14826339155394 15.634634404401792
    vertex 545.0051334385507 -54.148260744042304 15.634634404400817
    vertex 545.0051334369796 -54.14823416118674 6.59997791983849
  endloop
endfacet
facet normal -4.874156702036086e-07 0.9999999999955764 2.9341967757497945e-06
  outer loop
    vertex 545.0051334385507 -54.148260744042304 15.634634404400817
    vertex 562.5051334385495 -54.14824557625843 16.634634404400114
    vertex 561.5051334385456 -54.1482465689076 15.634634404395785
  endloop
endfacet
facet normal -4.874156702036086e-07 0.9999999999955764 2.9341967757497945e-06
  outer loop
    vertex 561.5051334385456 -54.1482465689076 15.634634404395785
    vertex 562.5051334385495 -54.14824557625843 16.634634404400114
    vertex 562.5051334369989 -54.1482399557894 5.59997791981603
  endloop
endfacet
facet normal -4.874156702036086e-07 0.9999999999955764 2.9341967757497945e-06
  outer loop
    vertex 506.7940707531082 -54.14824035284992 5.599977919816029
    vertex 507.7940707531126 -54.148246147842855 6.599977919803559
    vertex 562.5051334369989 -54.1482399557894 5.59997791981603
  endloop
endfacet
facet normal -4.874156702036086e-07 0.9999999999955764 2.9341967757497945e-06
  outer loop
    vertex 507.7940707531126 -54.148246147842855 6.599977919803559
    vertex 506.7940707531082 -54.14824035284992 5.599977919816029
    vertex 506.7940707546588 -54.14829948808784 16.634634404400106
  endloop
endfacet
facet normal -4.874156702036086e-07 0.9999999999955764 2.9341967757497945e-06
  outer loop
    vertex 562.5051334369989 -54.1482399557894 5.59997791981603
    vertex 507.7940707531126 -54.148246147842855 6.599977919803559
    vertex 524.2940694014591 -54.14825243878144 6.599977919798909
  endloop
endfacet
facet normal -4.874156702036086e-07 0.9999999999955764 2.9341967757497945e-06
  outer loop
    vertex 562.5051334369989 -54.1482399557894 5.59997791981603
    vertex 524.2940694014591 -54.14825243878144 6.599977919798909
    vertex 527.2940707530857 -54.14824979126864 6.599977919797933
  endloop
endfacet
facet normal -4.874156702036086e-07 0.9999999999955764 2.9341967757497945e-06
  outer loop
    vertex 527.2940707530857 -54.14824979126864 6.599977919797933
    vertex 524.2940694014591 -54.14825243878144 6.599977919798909
    vertex 524.2940694030301 -54.14827902163673 15.634634404407542
  endloop
endfacet
facet normal -4.874156702036086e-07 0.9999999999955764 2.9341967757497945e-06
  outer loop
    vertex 562.5051334369989 -54.1482399557894 5.59997791981603
    vertex 527.2940707530857 -54.14824979126864 6.599977919797933
    vertex 542.0051334369806 -54.14823680869838 6.599977919839466
  endloop
endfacet
facet normal -4.874156702036086e-07 0.9999999999955764 2.9341967757497945e-06
  outer loop
    vertex 562.5051334369989 -54.1482399557894 5.59997791981603
    vertex 542.0051334369806 -54.14823680869838 6.599977919839466
    vertex 545.0051334369796 -54.14823416118674 6.59997791983849
  endloop
endfacet
facet normal -4.874156702036086e-07 0.9999999999955764 2.9341967757497945e-06
  outer loop
    vertex 545.0051334369796 -54.14823416118674 6.59997791983849
    vertex 542.0051334369806 -54.14823680869838 6.599977919839466
    vertex 542.0051334385518 -54.14826339155394 15.634634404401792
  endloop
endfacet
facet normal -4.874156702036086e-07 0.9999999999955764 2.9341967757497945e-06
  outer loop
    vertex 562.5051334369989 -54.1482399557894 5.59997791981603
    vertex 545.0051334369796 -54.14823416118674 6.59997791983849
    vertex 561.5051334369946 -54.14823995578943 6.599977919820352
  endloop
endfacet
facet normal -4.874156702036086e-07 0.9999999999955764 2.9341967757497945e-06
  outer loop
    vertex 562.5051334369989 -54.1482399557894 5.59997791981603
    vertex 561.5051334369946 -54.14823995578943 6.599977919820352
    vertex 561.5051334385456 -54.1482465689076 15.634634404395785
  endloop
endfacet
facet normal 4.832619169717484e-07 -0.9914780383918507 0.13027393978234666
  outer loop
    vertex 506.7940714989414 -55.647887954315266 16.63463005934784
    vertex 562.5051341701873 -55.622357125898795 16.828731294669208
    vertex 506.7940714862833 -55.62238428034267 16.828731294670778
  endloop
endfacet
facet normal 4.832619169717484e-07 -0.9914780383918507 0.13027393978234666
  outer loop
    vertex 562.5051341701873 -55.622357125898795 16.828731294669208
    vertex 506.7940714989414 -55.647887954315266 16.63463005934784
    vertex 562.5051341828455 -55.64786079987139 16.63463005934627
  endloop
endfacet
facet normal 4.503522711042814e-07 -0.9239593755958112 0.3824906172030836
  outer loop
    vertex 506.7940714862833 -55.62238428034267 16.828731294670778
    vertex 562.5051341330226 -55.547477099893435 17.009614429995356
    vertex 506.7940714491185 -55.54750425433731 17.009614429996923
  endloop
endfacet
facet normal 4.503522711042814e-07 -0.9239593755958112 0.3824906172030836
  outer loop
    vertex 562.5051341330226 -55.547477099893435 17.009614429995356
    vertex 506.7940714862833 -55.62238428034267 16.828731294670778
    vertex 562.5051341701873 -55.622357125898795 16.828731294669208
  endloop
endfacet
facet normal 3.8674120021520867e-07 -0.793452533739074 0.6086321357789892
  outer loop
    vertex 506.7940714491185 -55.54750425433731 17.009614429996923
    vertex 562.5051340738847 -55.42832544464998 17.16494829620855
    vertex 506.7940713899806 -55.428352599093856 17.164948296210117
  endloop
endfacet
facet normal 3.8674120021520867e-07 -0.793452533739074 0.6086321357789892
  outer loop
    vertex 562.5051340738847 -55.42832544464998 17.16494829620855
    vertex 506.7940714491185 -55.54750425433731 17.009614429996923
    vertex 562.5051341330226 -55.547477099893435 17.009614429995356
  endloop
endfacet
facet normal 2.967651996014791e-07 -0.6088544281417329 0.7932819708855833
  outer loop
    vertex 506.7940713129012 -55.27305212389826 17.28414346953521
    vertex 562.5051340738847 -55.42832544464998 17.16494829620855
    vertex 562.5051339968052 -55.27302496945438 17.284143469533646
  endloop
endfacet
facet normal 2.967651996014791e-07 -0.6088544281417329 0.7932819708855833
  outer loop
    vertex 562.5051340738847 -55.42832544464998 17.16494829620855
    vertex 506.7940713129012 -55.27305212389826 17.28414346953521
    vertex 506.7940713899806 -55.428352599093856 17.164948296210117
  endloop
endfacet
facet normal 1.865581151977358e-07 -0.3827494849555015 0.9238521698660797
  outer loop
    vertex 506.7940712231349 -55.09218997619246 17.359074173970736
    vertex 562.5051339968052 -55.27302496945438 17.284143469533646
    vertex 562.505133907039 -55.09216282174858 17.359074173969177
  endloop
endfacet
facet normal 1.865581151977358e-07 -0.3827494849555015 0.9238521698660797
  outer loop
    vertex 562.5051339968052 -55.27302496945438 17.284143469533646
    vertex 506.7940712231349 -55.09218997619246 17.359074173970736
    vertex 506.7940713129012 -55.27305212389826 17.28414346953521
  endloop
endfacet
facet normal 6.363298691420061e-08 -0.13055173538548012 0.9914414982175376
  outer loop
    vertex 506.7940711268012 -54.89809589432394 17.384632231870828
    vertex 562.505133907039 -55.09216282174858 17.359074173969177
    vertex 562.5051338107053 -54.89806873988006 17.384632231869258
  endloop
endfacet
facet normal 6.363298691420061e-08 -0.13055173538548012 0.9914414982175376
  outer loop
    vertex 562.505133907039 -55.09216282174858 17.359074173969177
    vertex 506.7940711268012 -54.89809589432394 17.384632231870828
    vertex 506.7940712231349 -55.09218997619246 17.359074173970736
  endloop
endfacet
facet normal -6.363013076197123e-08 0.13054598998666644 0.9914422547472936
  outer loop
    vertex 506.7940710304674 -54.70400166435006 17.35907529874505
    vertex 562.5051338107053 -54.89806873988006 17.384632231869258
    vertex 562.5051337143716 -54.70397450990618 17.359075298743484
  endloop
endfacet
facet normal -6.363013076197123e-08 0.13054598998666644 0.9914422547472936
  outer loop
    vertex 562.5051338107053 -54.89806873988006 17.384632231869258
    vertex 506.7940710304674 -54.70400166435006 17.35907529874505
    vertex 506.7940711268012 -54.89809589432394 17.384632231870828
  endloop
endfacet
facet normal -1.8655545384846324e-07 0.3827441312318818 0.9238543878812923
  outer loop
    vertex 506.7940709407009 -54.52313908242429 17.28414564240569
    vertex 562.5051337143716 -54.70397450990618 17.359075298743484
    vertex 562.505133624605 -54.52311192798041 17.28414564240413
  endloop
endfacet
facet normal -1.8655545384846324e-07 0.3827441312318818 0.9238543878812923
  outer loop
    vertex 562.5051337143716 -54.70397450990618 17.359075298743484
    vertex 506.7940709407009 -54.52313908242429 17.28414564240569
    vertex 506.7940710304674 -54.70400166435006 17.35907529874505
  endloop
endfacet
facet normal -2.967629143445742e-07 0.6088498310679105 0.793285499179513
  outer loop
    vertex 506.7940708636211 -54.36783791649608 17.164951369047795
    vertex 562.505133624605 -54.52311192798041 17.28414564240413
    vertex 562.5051335475252 -54.3678107620522 17.164951369046225
  endloop
endfacet
facet normal -2.967629143445742e-07 0.6088498310679105 0.793285499179513
  outer loop
    vertex 562.505133624605 -54.52311192798041 17.28414564240413
    vertex 506.7940708636211 -54.36783791649608 17.164951369047795
    vertex 506.7940709407009 -54.52313908242429 17.28414564240569
  endloop
endfacet
facet normal -3.867394468263389e-07 0.7934490067067246 0.6086367338207272
  outer loop
    vertex 506.7940708636211 -54.36783791649608 17.164951369047795
    vertex 562.505133488387 -54.24865820665208 17.009618193318673
    vertex 506.7940708044828 -54.24868536109595 17.00961819332024
  endloop
endfacet
facet normal -3.867394468263389e-07 0.7934490067067246 0.6086367338207272
  outer loop
    vertex 562.505133488387 -54.24865820665208 17.009618193318673
    vertex 506.7940708636211 -54.36783791649608 17.164951369047795
    vertex 562.5051335475252 -54.3678107620522 17.164951369046225
  endloop
endfacet
facet normal -4.503511691956177e-07 0.9239571590497583 0.38249597153499154
  outer loop
    vertex 506.7940708044828 -54.24868536109595 17.00961819332024
    vertex 562.5051334512216 -54.173777132431425 16.8287354919248
    vertex 506.79407076731746 -54.1738042868753 16.828735491926366
  endloop
endfacet
facet normal -4.503511691956177e-07 0.9239571590497583 0.38249597153499154
  outer loop
    vertex 562.5051334512216 -54.173777132431425 16.8287354919248
    vertex 506.7940708044828 -54.24868536109595 17.00961819332024
    vertex 562.505133488387 -54.24865820665208 17.009618193318673
  endloop
endfacet
facet normal -7.213527129926537e-07 0.9914684539399033 0.1303468635660153
  outer loop
    vertex 506.79407076731746 -54.1738042868753 16.828735491926366
    vertex 562.5051334385495 -54.14824557625843 16.634634404400114
    vertex 506.7940707546588 -54.14829948808784 16.634634404400106
  endloop
endfacet
facet normal -7.213527129926537e-07 0.9914684539399033 0.1303468635660153
  outer loop
    vertex 562.5051334385495 -54.14824557625843 16.634634404400114
    vertex 506.79407076731746 -54.1738042868753 16.828735491926366
    vertex 562.5051334512216 -54.173777132431425 16.8287354919248
  endloop
endfacet
facet normal -2.451653378703049e-07 0.9914827917933909 -0.13023775787967035
  outer loop
    vertex 562.5051334369989 -54.1482399557894 5.59997791981603
    vertex 506.7940707657695 -54.173750429014795 5.405874940744951
    vertex 506.7940707531082 -54.14824035284992 5.599977919816029
  endloop
endfacet
facet normal -2.451653378703049e-07 0.9914827917933909 -0.13023775787967035
  outer loop
    vertex 506.7940707657695 -54.173750429014795 5.405874940744951
    vertex 562.5051334369989 -54.1482399557894 5.59997791981603
    vertex 562.5051334496469 -54.17372327457038 5.405874940745059
  endloop
endfacet
facet normal -4.5034754880137025e-07 0.9239496923158177 -0.3825140076772391
  outer loop
    vertex 562.5051334496469 -54.17372327457038 5.405874940745059
    vertex 506.79407080293703 -54.24863601455538 5.22499133300656
    vertex 506.7940707657695 -54.173750429014795 5.405874940744951
  endloop
endfacet
facet normal -4.5034754880137025e-07 0.9239496923158177 -0.3825140076772391
  outer loop
    vertex 506.79407080293703 -54.24863601455538 5.22499133300656
    vertex 562.5051334496469 -54.17372327457038 5.405874940745059
    vertex 562.5051334868145 -54.24860886011096 5.224991333006668
  endloop
endfacet
facet normal -3.8673544389752455e-07 0.7934407456037467 -0.6086475032525978
  outer loop
    vertex 562.5051334868145 -54.24860886011096 5.224991333006668
    vertex 506.7940708620772 -54.36779223825986 5.069657740945155
    vertex 506.79407080293703 -54.24863601455538 5.22499133300656
  endloop
endfacet
facet normal -3.8673544389752455e-07 0.7934407456037467 -0.6086475032525978
  outer loop
    vertex 506.7940708620772 -54.36779223825986 5.069657740945155
    vertex 562.5051334868145 -54.24860886011096 5.224991333006668
    vertex 562.5051335459545 -54.36776508381544 5.069657740945265
  endloop
endfacet
facet normal -2.967599925702772e-07 0.6088437819364103 -0.793290141875771
  outer loop
    vertex 562.5051336230357 -54.523069191862774 4.9504630913429875
    vertex 506.7940708620772 -54.36779223825986 5.069657740945155
    vertex 562.5051335459545 -54.36776508381544 5.069657740945265
  endloop
endfacet
facet normal -2.967599925702772e-07 0.6088437819364103 -0.793290141875771
  outer loop
    vertex 506.7940708620772 -54.36779223825986 5.069657740945155
    vertex 562.5051336230357 -54.523069191862774 4.9504630913429875
    vertex 506.7940709391585 -54.52309634630719 4.95046309134288
  endloop
endfacet
facet normal -1.8655472623827254e-07 0.38274258120633514 -0.9238550300406861
  outer loop
    vertex 562.5051337128036 -54.70393426736498 4.875532757473656
    vertex 506.7940709391585 -54.52309634630719 4.95046309134288
    vertex 562.5051336230357 -54.523069191862774 4.9504630913429875
  endloop
endfacet
facet normal -1.8655472623827254e-07 0.38274258120633514 -0.9238550300406861
  outer loop
    vertex 506.7940709391585 -54.52309634630719 4.95046309134288
    vertex 562.5051337128036 -54.70393426736498 4.875532757473656
    vertex 506.7940710289263 -54.703961421809396 4.8755327574735485
  endloop
endfacet
facet normal -6.363222139827093e-08 0.13055022327696095 -0.9914416973288604
  outer loop
    vertex 562.5051338091386 -54.89803092930079 4.849974660995257
    vertex 506.7940710289263 -54.703961421809396 4.8755327574735485
    vertex 562.5051337128036 -54.70393426736498 4.875532757473656
  endloop
endfacet
facet normal -6.363222139827093e-08 0.13055022327696095 -0.9914416973288604
  outer loop
    vertex 506.7940710289263 -54.703961421809396 4.8755327574735485
    vertex 562.5051338091386 -54.89803092930079 4.849974660995257
    vertex 506.7940711252612 -54.898058083745205 4.84997466099515
  endloop
endfacet
facet normal 6.362802472721507e-08 -0.1305416053805628 -0.9914428320708469
  outer loop
    vertex 562.5051339054737 -55.092127813387414 4.875531070329638
    vertex 506.7940711252612 -54.898058083745205 4.84997466099515
    vertex 562.5051338091386 -54.89803092930079 4.849974660995257
  endloop
endfacet
facet normal 6.362802472721507e-08 -0.1305416053805628 -0.9914428320708469
  outer loop
    vertex 506.7940711252612 -54.898058083745205 4.84997466099515
    vertex 562.5051339054737 -55.092127813387414 4.875531070329638
    vertex 506.7940712215962 -55.09215496783183 4.875531070329529
  endloop
endfacet
facet normal 1.8655081566152636e-07 -0.3827345507827538 -0.9238583569125134
  outer loop
    vertex 562.5051339952417 -55.27299354019846 4.950459832065778
    vertex 506.7940712215962 -55.09215496783183 4.875531070329529
    vertex 562.5051339054737 -55.092127813387414 4.875531070329638
  endloop
endfacet
facet normal 1.8655081566152636e-07 -0.3827345507827538 -0.9238583569125134
  outer loop
    vertex 506.7940712215962 -55.09215496783183 4.875531070329529
    vertex 562.5051339952417 -55.27299354019846 4.950459832065778
    vertex 506.79407131136435 -55.27302069464288 4.95045983206567
  endloop
endfacet
facet normal 2.9675663466502117e-07 -0.608836886411107 -0.7932954340881718
  outer loop
    vertex 562.5051340723235 -55.428298684313575 5.0696531317163425
    vertex 506.79407131136435 -55.27302069464288 4.95045983206567
    vertex 562.5051339952417 -55.27299354019846 4.950459832065778
  endloop
endfacet
facet normal 2.9675663466502117e-07 -0.608836886411107 -0.7932954340881718
  outer loop
    vertex 506.79407131136435 -55.27302069464288 4.95045983206567
    vertex 562.5051340723235 -55.428298684313575 5.0696531317163425
    vertex 506.79407138844607 -55.42832583875799 5.069653131716234
  endloop
endfacet
facet normal 3.867328675572678e-07 -0.7934354550377009 -0.6086544000407512
  outer loop
    vertex 562.5051340723235 -55.428298684313575 5.0696531317163425
    vertex 506.7940714475869 -55.547483412661435 5.224985688032191
    vertex 506.79407138844607 -55.42832583875799 5.069653131716234
  endloop
endfacet
facet normal 3.867328675572678e-07 -0.7934354550377009 -0.6086544000407512
  outer loop
    vertex 506.7940714475869 -55.547483412661435 5.224985688032191
    vertex 562.5051340723235 -55.428298684313575 5.0696531317163425
    vertex 562.5051341314644 -55.54745625821702 5.224985688032301
  endloop
endfacet
facet normal 4.5034592964762176e-07 -0.9239463673612301 -0.382522038894211
  outer loop
    vertex 562.5051341314644 -55.54745625821702 5.224985688032301
    vertex 506.7940714847552 -55.622370570490524 5.405868644837071
    vertex 506.7940714475869 -55.547483412661435 5.224985688032191
  endloop
endfacet
facet normal 4.5034592964762176e-07 -0.9239463673612301 -0.382522038894211
  outer loop
    vertex 506.7940714847552 -55.622370570490524 5.405868644837071
    vertex 562.5051341314644 -55.54745625821702 5.224985688032301
    vertex 562.5051341686327 -55.62234341604611 5.405868644837179
  endloop
endfacet
facet normal 4.832593857357913e-07 -0.9914728324391592 -0.13031355468575564
  outer loop
    vertex 562.5051341686327 -55.62234341604611 5.405868644837179
    vertex 506.79407149741735 -55.64788233385254 5.599971402160024
    vertex 506.7940714847552 -55.622370570490524 5.405868644837071
  endloop
endfacet
facet normal 4.832593857357913e-07 -0.9914728324391592 -0.13031355468575564
  outer loop
    vertex 506.79407149741735 -55.64788233385254 5.599971402160024
    vertex 562.5051341686327 -55.62234341604611 5.405868644837179
    vertex 562.5051341812947 -55.647855179408126 5.599971402160136
  endloop
endfacet
facet normal 0.13036069768467262 -0.9914666350897803 -1.707076135011933e-06
  outer loop
    vertex 562.6992361834606 -55.62232074806742 5.59997364874683
    vertex 562.5051341828455 -55.64786079987139 16.63463005934627
    vertex 562.5051341812947 -55.647855179408126 5.599971402160136
  endloop
endfacet
facet normal 0.13036069768467262 -0.9914666350897803 -1.707076135011933e-06
  outer loop
    vertex 562.5051341828455 -55.64786079987139 16.63463005934627
    vertex 562.6992361834606 -55.62232074806742 5.59997364874683
    vertex 562.6992361850112 -55.62235312545319 16.634630133253374
  endloop
endfacet
facet normal 0.3825061175523781 -0.9239529587742314 -2.711074379688243e-06
  outer loop
    vertex 562.8801192466145 -55.54743719738406 5.5999738657178595
    vertex 562.6992361850112 -55.62235312545319 16.634630133253374
    vertex 562.6992361834606 -55.62232074806742 5.59997364874683
  endloop
endfacet
facet normal 0.3825061175523781 -0.9239529587742314 -2.711074379688243e-06
  outer loop
    vertex 562.6992361850112 -55.62235312545319 16.634630133253374
    vertex 562.8801192466145 -55.54743719738406 5.5999738657178595
    vertex 562.8801192481651 -55.54746957476983 16.634630350224406
  endloop
endfacet
facet normal 0.6086430871380356 -0.793444133177416 -2.3281731125601885e-06
  outer loop
    vertex 563.0354524850525 -55.42828261822222 5.599974210961796
    vertex 562.8801192481651 -55.54746957476983 16.634630350224406
    vertex 562.8801192466145 -55.54743719738406 5.5999738657178595
  endloop
endfacet
facet normal 0.6086430871380356 -0.793444133177416 -2.3281731125601885e-06
  outer loop
    vertex 562.8801192481651 -55.54746957476983 16.634630350224406
    vertex 563.0354524850525 -55.42828261822222 5.599974210961796
    vertex 563.035452486603 -55.42831499560799 16.634630695468342
  endloop
endfacet
facet normal 0.7932885637591501 -0.6088458381279723 -1.7865591608379475e-06
  outer loop
    vertex 563.1546467569505 -55.272979835744124 5.59997466094319
    vertex 563.035452486603 -55.42831499560799 16.634630695468342
    vertex 563.0354524850525 -55.42828261822222 5.599974210961796
  endloop
endfacet
facet normal 0.7932885637591501 -0.6088458381279723 -1.7865591608379475e-06
  outer loop
    vertex 563.035452486603 -55.42831499560799 16.634630695468342
    vertex 563.1546467569505 -55.272979835744124 5.59997466094319
    vertex 563.154646758501 -55.273012213129896 16.634631145449735
  endloop
endfacet
facet normal 0.9238551761700269 -0.3827422284809805 -1.1231546089755767e-06
  outer loop
    vertex 563.2295765312736 -55.092115915575945 5.599975184986597
    vertex 563.154646758501 -55.273012213129896 16.634631145449735
    vertex 563.1546467569505 -55.272979835744124 5.59997466094319
  endloop
endfacet
facet normal 0.9238551761700269 -0.3827422284809805 -1.1231546089755767e-06
  outer loop
    vertex 563.154646758501 -55.273012213129896 16.634631145449735
    vertex 563.2295765312736 -55.092115915575945 5.599975184986597
    vertex 563.2295765328241 -55.09214829296172 16.634631669493142
  endloop
endfacet
facet normal 0.9914421353944499 -0.13054689641790268 -3.8318406541773404e-07
  outer loop
    vertex 563.2551338091469 -54.898020438435566 5.599975747367722
    vertex 563.2295765328241 -55.09214829296172 16.634631669493142
    vertex 563.2295765312736 -55.092115915575945 5.599975184986597
  endloop
endfacet
facet normal 0.9914421353944499 -0.13054689641790268 -3.8318406541773404e-07
  outer loop
    vertex 563.2295765328241 -55.09214829296172 16.634631669493142
    vertex 563.2551338091469 -54.898020438435566 5.599975747367722
    vertex 563.2551338106974 -54.89805281582134 16.634632231874267
  endloop
endfacet
facet normal 0.9914420058066566 0.13054788057232758 3.8290832079389563e-07
  outer loop
    vertex 563.2295763386047 -54.70392498666469 5.599976309748773
    vertex 563.2551338106974 -54.89805281582134 16.634632231874267
    vertex 563.2551338091469 -54.898020438435566 5.599975747367722
  endloop
endfacet
facet normal 0.9914420058066566 0.13054788057232758 3.8290832079389563e-07
  outer loop
    vertex 563.2551338106974 -54.89805281582134 16.634632231874267
    vertex 563.2295763386047 -54.70392498666469 5.599976309748773
    vertex 563.2295763401553 -54.70395736405046 16.634632794255317
  endloop
endfacet
facet normal 0.9238547962406874 0.38274314554517774 1.1228976619961245e-06
  outer loop
    vertex 563.1546463847473 -54.523061140875704 5.599976833791965
    vertex 563.2295763401553 -54.70395736405046 16.634632794255317
    vertex 563.2295763386047 -54.70392498666469 5.599976309748773
  endloop
endfacet
facet normal 0.9238547962406874 0.38274314554517774 1.1228976619961245e-06
  outer loop
    vertex 563.2295763401553 -54.70395736405046 16.634632794255317
    vertex 563.1546463847473 -54.523061140875704 5.599976833791965
    vertex 563.1546463862978 -54.52309351826147 16.63463331829851
  endloop
endfacet
facet normal 0.793287959388468 0.6088466255848757 1.7863385277003741e-06
  outer loop
    vertex 563.0354519586881 -54.36775847671573 5.599977283773018
    vertex 563.1546463862978 -54.52309351826147 16.63463331829851
    vertex 563.1546463847473 -54.523061140875704 5.599976833791965
  endloop
endfacet
facet normal 0.793287959388468 0.6088466255848757 1.7863385277003741e-06
  outer loop
    vertex 563.1546463862978 -54.52309351826147 16.63463331829851
    vertex 563.0354519586881 -54.36775847671573 5.599977283773018
    vertex 563.0354519602387 -54.3677908541015 16.634633768279564
  endloop
endfacet
facet normal 0.6086422995258 0.7934447373462926 2.328003833934651e-06
  outer loop
    vertex 562.8801186035222 -54.24863642913118 16.634634113523052
    vertex 563.0354519586881 -54.36775847671573 5.599977283773018
    vertex 562.8801186019715 -54.24860405174542 5.599977629016506
  endloop
endfacet
facet normal 0.6086422995258 0.7934447373462926 2.328003833934651e-06
  outer loop
    vertex 563.0354519586881 -54.36775847671573 5.599977283773018
    vertex 562.8801186035222 -54.24863642913118 16.634634113523052
    vertex 563.0354519602387 -54.3677908541015 16.634633768279564
  endloop
endfacet
facet normal 0.38250520039106817 0.9239533384681498 2.7109679953798354e-06
  outer loop
    vertex 562.6992354660352 -54.17375305800127 16.63463433049356
    vertex 562.8801186019715 -54.24860405174542 5.599977629016506
    vertex 562.6992354644846 -54.1737206806155 5.599977845987015
  endloop
endfacet
facet normal 0.38250520039106817 0.9239533384681498 2.7109679953798354e-06
  outer loop
    vertex 562.8801186019715 -54.24860405174542 5.599977629016506
    vertex 562.6992354660352 -54.17375305800127 16.63463433049356
    vertex 562.8801186035222 -54.24863642913118 16.634634113523052
  endloop
endfacet
facet normal 0.1302253590327264 0.9914844203828336 1.7070706846850679e-06
  outer loop
    vertex 562.5051334385495 -54.14824557625843 16.634634404400114
    vertex 562.6992354644846 -54.1737206806155 5.599977845987015
    vertex 562.5051334369989 -54.1482399557894 5.59997791981603
  endloop
endfacet
facet normal 0.1302253590327264 0.9914844203828336 1.7070706846850679e-06
  outer loop
    vertex 562.6992354644846 -54.1737206806155 5.599977845987015
    vertex 562.5051334385495 -54.14824557625843 16.634634404400114
    vertex 562.6992354660352 -54.17375305800127 16.63463433049356
  endloop
endfacet
facet normal 0.1292017300583426 -0.9831677958525493 0.12918203492889915
  outer loop
    vertex 562.6992361850112 -55.62235312545319 16.634630133253374
    vertex 562.5051341701873 -55.622357125898795 16.828731294669208
    vertex 562.5051341828455 -55.64786079987139 16.63463005934627
  endloop
endfacet
facet normal 0.35726398914733226 -0.8629811908475558 0.35724768201049206
  outer loop
    vertex 562.5051341701873 -55.622357125898795 16.828731294669208
    vertex 562.8801192481651 -55.54746957476983 16.634630350224406
    vertex 562.5051341330226 -55.547477099893435 17.009614429995356
  endloop
endfacet
facet normal 0.35726398914733226 -0.8629811908475558 0.35724768201049206
  outer loop
    vertex 562.8801192481651 -55.54746957476983 16.634630350224406
    vertex 562.5051341701873 -55.622357125898795 16.828731294669208
    vertex 562.6992361850112 -55.62235312545319 16.634630133253374
  endloop
endfacet
facet normal 0.5199167643310034 -0.6777802290589634 0.5199043366470016
  outer loop
    vertex 562.5051341330226 -55.547477099893435 17.009614429995356
    vertex 563.035452486603 -55.42831499560799 16.634630695468342
    vertex 562.5051340738847 -55.42832544464998 17.16494829620855
  endloop
endfacet
facet normal 0.5199167643310034 -0.6777802290589634 0.5199043366470016
  outer loop
    vertex 563.035452486603 -55.42831499560799 16.634630695468342
    vertex 562.5051341330226 -55.547477099893435 17.009614429995356
    vertex 562.8801192481651 -55.54746957476983 16.634630350224406
  endloop
endfacet
facet normal 0.6214863008864681 -0.476991016087319 0.6214775525973899
  outer loop
    vertex 563.154646758501 -55.273012213129896 16.634631145449735
    vertex 562.5051340738847 -55.42832544464998 17.16494829620855
    vertex 563.035452486603 -55.42831499560799 16.634630695468342
  endloop
endfacet
facet normal 0.6214863008864681 -0.476991016087319 0.6214775525973899
  outer loop
    vertex 562.5051340738847 -55.42832544464998 17.16494829620855
    vertex 563.154646758501 -55.273012213129896 16.634631145449735
    vertex 562.5051339968052 -55.27302496945438 17.284143469533646
  endloop
endfacet
facet normal 0.6785906012755573 -0.2811348628820924 0.6785852818421166
  outer loop
    vertex 563.2295765328241 -55.09214829296172 16.634631669493142
    vertex 562.5051339968052 -55.27302496945438 17.284143469533646
    vertex 563.154646758501 -55.273012213129896 16.634631145449735
  endloop
endfacet
facet normal 0.6785906012755573 -0.2811348628820924 0.6785852818421166
  outer loop
    vertex 562.5051339968052 -55.27302496945438 17.284143469533646
    vertex 563.2295765328241 -55.09214829296172 16.634631669493142
    vertex 562.505133907039 -55.09216282174858 17.359074173969177
  endloop
endfacet
facet normal 0.7040623761430328 -0.09270899884775173 0.7040605173083307
  outer loop
    vertex 563.2551338106974 -54.89805281582134 16.634632231874267
    vertex 562.505133907039 -55.09216282174858 17.359074173969177
    vertex 563.2295765328241 -55.09214829296172 16.634631669493142
  endloop
endfacet
facet normal 0.7040623761430328 -0.09270899884775173 0.7040605173083307
  outer loop
    vertex 562.505133907039 -55.09216282174858 17.359074173969177
    vertex 563.2551338106974 -54.89805281582134 16.634632231874267
    vertex 562.5051338107053 -54.89806873988006 17.384632231869258
  endloop
endfacet
facet normal 0.7040606022226791 0.09270561773557713 0.7040627364362522
  outer loop
    vertex 562.5051337143716 -54.70397450990618 17.359075298743484
    vertex 563.2551338106974 -54.89805281582134 16.634632231874267
    vertex 563.2295763401553 -54.70395736405046 16.634632794255317
  endloop
endfacet
facet normal 0.7040606022226791 0.09270561773557713 0.7040627364362522
  outer loop
    vertex 563.2551338106974 -54.89805281582134 16.634632231874267
    vertex 562.5051337143716 -54.70397450990618 17.359075298743484
    vertex 562.5051338107053 -54.89806873988006 17.384632231869258
  endloop
endfacet
facet normal 0.6785848634616306 0.28113160407355814 0.6785923697417975
  outer loop
    vertex 562.505133624605 -54.52311192798041 17.28414564240413
    vertex 563.2295763401553 -54.70395736405046 16.634632794255317
    vertex 563.1546463862978 -54.52309351826147 16.63463331829851
  endloop
endfacet
facet normal 0.6785848634616306 0.28113160407355814 0.6785923697417975
  outer loop
    vertex 563.2295763401553 -54.70395736405046 16.634632794255317
    vertex 562.505133624605 -54.52311192798041 17.28414564240413
    vertex 562.5051337143716 -54.70397450990618 17.359075298743484
  endloop
endfacet
facet normal 0.6214751190794799 0.4769880313961519 0.6214910250920522
  outer loop
    vertex 562.5051335475252 -54.3678107620522 17.164951369046225
    vertex 563.1546463862978 -54.52309351826147 16.63463331829851
    vertex 563.0354519602387 -54.3677908541015 16.634633768279564
  endloop
endfacet
facet normal 0.6214751190794799 0.4769880313961519 0.6214910250920522
  outer loop
    vertex 563.1546463862978 -54.52309351826147 16.63463331829851
    vertex 562.5051335475252 -54.3678107620522 17.164951369046225
    vertex 562.505133624605 -54.52311192798041 17.28414564240413
  endloop
endfacet
facet normal 0.5198966317100717 0.6777777321590965 0.5199277239441982
  outer loop
    vertex 562.5051335475252 -54.3678107620522 17.164951369046225
    vertex 562.8801186035222 -54.24863642913118 16.634634113523052
    vertex 562.505133488387 -54.24865820665208 17.009618193318673
  endloop
endfacet
facet normal 0.5198966317100717 0.6777777321590965 0.5199277239441982
  outer loop
    vertex 562.8801186035222 -54.24863642913118 16.634634113523052
    vertex 562.5051335475252 -54.3678107620522 17.164951369046225
    vertex 563.0354519602387 -54.3677908541015 16.634633768279564
  endloop
endfacet
facet normal 0.35722627959633885 0.8629794743704007 0.3572895352247884
  outer loop
    vertex 562.505133488387 -54.24865820665208 17.009618193318673
    vertex 562.6992354660352 -54.17375305800127 16.63463433049356
    vertex 562.5051334512216 -54.173777132431425 16.8287354919248
  endloop
endfacet
facet normal 0.35722627959633885 0.8629794743704007 0.3572895352247884
  outer loop
    vertex 562.6992354660352 -54.17375305800127 16.63463433049356
    vertex 562.505133488387 -54.24865820665208 17.009618193318673
    vertex 562.8801186035222 -54.24863642913118 16.634634113523052
  endloop
endfacet
facet normal 0.12919849084751656 0.9831499525026006 0.12932099928804455
  outer loop
    vertex 562.6992354660352 -54.17375305800127 16.63463433049356
    vertex 562.5051334385495 -54.14824557625843 16.634634404400114
    vertex 562.5051334512216 -54.173777132431425 16.8287354919248
  endloop
endfacet
facet normal 0.1293358448578464 -0.9831452990661134 -0.12921903946056085
  outer loop
    vertex 562.6992361834606 -55.62232074806742 5.59997364874683
    vertex 562.5051341812947 -55.647855179408126 5.599971402160136
    vertex 562.5051341686327 -55.62234341604611 5.405868644837179
  endloop
endfacet
facet normal 0.3572986335191643 -0.8629703270435571 -0.35723927713463116
  outer loop
    vertex 562.8801192466145 -55.54743719738406 5.5999738657178595
    vertex 562.5051341686327 -55.62234341604611 5.405868644837179
    vertex 562.5051341314644 -55.54745625821702 5.224985688032301
  endloop
endfacet
facet normal 0.3572986335191643 -0.8629703270435571 -0.35723927713463116
  outer loop
    vertex 562.5051341686327 -55.62234341604611 5.405868644837179
    vertex 562.8801192466145 -55.54743719738406 5.5999738657178595
    vertex 562.6992361834606 -55.62232074806742 5.59997364874683
  endloop
endfacet
facet normal 0.5199321853047406 -0.6777687692591171 -0.5199038546704752
  outer loop
    vertex 563.0354524850525 -55.42828261822222 5.599974210961796
    vertex 562.5051341314644 -55.54745625821702 5.224985688032301
    vertex 562.5051340723235 -55.428298684313575 5.0696531317163425
  endloop
endfacet
facet normal 0.5199321853047406 -0.6777687692591171 -0.5199038546704752
  outer loop
    vertex 562.5051341314644 -55.54745625821702 5.224985688032301
    vertex 563.0354524850525 -55.42828261822222 5.599974210961796
    vertex 562.8801192466145 -55.54743719738406 5.5999738657178595
  endloop
endfacet
facet normal 0.6214928249762529 -0.47698119027587077 -0.6214785697238887
  outer loop
    vertex 563.1546467569505 -55.272979835744124 5.59997466094319
    vertex 562.5051340723235 -55.428298684313575 5.0696531317163425
    vertex 562.5051339952417 -55.27299354019846 4.950459832065778
  endloop
endfacet
facet normal 0.6214928249762529 -0.47698119027587077 -0.6214785697238887
  outer loop
    vertex 562.5051340723235 -55.428298684313575 5.0696531317163425
    vertex 563.1546467569505 -55.272979835744124 5.59997466094319
    vertex 563.0354524850525 -55.42828261822222 5.599974210961796
  endloop
endfacet
facet normal 0.67859301178809 -0.2811271338962103 -0.6785860733463894
  outer loop
    vertex 563.2295765312736 -55.092115915575945 5.599975184986597
    vertex 562.5051339952417 -55.27299354019846 4.950459832065778
    vertex 562.5051339054737 -55.092127813387414 4.875531070329638
  endloop
endfacet
facet normal 0.67859301178809 -0.2811271338962103 -0.6785860733463894
  outer loop
    vertex 562.5051339952417 -55.27299354019846 4.950459832065778
    vertex 563.2295765312736 -55.092115915575945 5.599975184986597
    vertex 563.1546467569505 -55.272979835744124 5.59997466094319
  endloop
endfacet
facet normal 0.7040631345623863 -0.09270334863277797 -0.7040605028706387
  outer loop
    vertex 563.2551338091469 -54.898020438435566 5.599975747367722
    vertex 562.5051339054737 -55.092127813387414 4.875531070329638
    vertex 562.5051338091386 -54.89803092930079 4.849974660995257
  endloop
endfacet
facet normal 0.7040631345623863 -0.09270334863277797 -0.7040605028706387
  outer loop
    vertex 562.5051339054737 -55.092127813387414 4.875531070329638
    vertex 563.2551338091469 -54.898020438435566 5.599975747367722
    vertex 563.2295765312736 -55.092115915575945 5.599975184986597
  endloop
endfacet
facet normal 0.7040612953924944 0.09270915622197813 -0.704061577337417
  outer loop
    vertex 563.2551338091469 -54.898020438435566 5.599975747367722
    vertex 562.5051337128036 -54.70393426736498 4.875532757473656
    vertex 563.2295763386047 -54.70392498666469 5.599976309748773
  endloop
endfacet
facet normal 0.7040612953924944 0.09270915622197813 -0.704061577337417
  outer loop
    vertex 562.5051337128036 -54.70393426736498 4.875532757473656
    vertex 563.2551338091469 -54.898020438435566 5.599975747367722
    vertex 562.5051338091386 -54.89803092930079 4.849974660995257
  endloop
endfacet
facet normal 0.6785870628542958 0.2811328006386527 -0.6785896746428195
  outer loop
    vertex 563.2295763386047 -54.70392498666469 5.599976309748773
    vertex 562.5051336230357 -54.523069191862774 4.9504630913429875
    vertex 563.1546463847473 -54.523061140875704 5.599976833791965
  endloop
endfacet
facet normal 0.6785870628542958 0.2811328006386527 -0.6785896746428195
  outer loop
    vertex 562.5051336230357 -54.523069191862774 4.9504630913429875
    vertex 563.2295763386047 -54.70392498666469 5.599976309748773
    vertex 562.5051337128036 -54.70393426736498 4.875532757473656
  endloop
endfacet
facet normal 0.6214812385826521 0.47698651395190733 -0.6214860703167686
  outer loop
    vertex 563.1546463847473 -54.523061140875704 5.599976833791965
    vertex 562.5051335459545 -54.36776508381544 5.069657740945265
    vertex 563.0354519586881 -54.36775847671573 5.599977283773018
  endloop
endfacet
facet normal 0.6214812385826521 0.47698651395190733 -0.6214860703167686
  outer loop
    vertex 562.5051335459545 -54.36776508381544 5.069657740945265
    vertex 563.1546463847473 -54.523061140875704 5.599976833791965
    vertex 562.5051336230357 -54.523069191862774 4.9504630913429875
  endloop
endfacet
facet normal 0.5199113824344535 0.6777733974516333 -0.5199186245192278
  outer loop
    vertex 562.8801186019715 -54.24860405174542 5.599977629016506
    vertex 562.5051335459545 -54.36776508381544 5.069657740945265
    vertex 562.5051334868145 -54.24860886011096 5.224991333006668
  endloop
endfacet
facet normal 0.5199113824344535 0.6777733974516333 -0.5199186245192278
  outer loop
    vertex 562.5051335459545 -54.36776508381544 5.069657740945265
    vertex 562.8801186019715 -54.24860405174542 5.599977629016506
    vertex 563.0354519586881 -54.36775847671573 5.599977283773018
  endloop
endfacet
facet normal 0.12906922142038568 0.9831983691459023 -0.12908176862273585
  outer loop
    vertex 562.6992354644846 -54.1737206806155 5.599977845987015
    vertex 562.5051334496469 -54.17372327457038 5.405874940745059
    vertex 562.5051334369989 -54.1482399557894 5.59997791981603
  endloop
endfacet
facet normal 0.35725997105952245 0.8629736556371999 -0.3572699018315385
  outer loop
    vertex 562.6992354644846 -54.1737206806155 5.599977845987015
    vertex 562.5051334868145 -54.24860886011096 5.224991333006668
    vertex 562.5051334496469 -54.17372327457038 5.405874940745059
  endloop
endfacet
facet normal 0.35725997105952245 0.8629736556371999 -0.3572699018315385
  outer loop
    vertex 562.5051334868145 -54.24860886011096 5.224991333006668
    vertex 562.6992354644846 -54.1737206806155 5.599977845987015
    vertex 562.8801186019715 -54.24860405174542 5.599977629016506
  endloop
endfacet
facet normal -0.13034448288895864 0.9914687669127593 4.111264342166684e-06
  outer loop
    vertex 506.5999696058919 -54.17380382080505 16.634634330501953
    vertex 506.7940707531082 -54.14824035284992 5.599977919816029
    vertex 506.59996960431477 -54.17377144295166 5.599977845840344
  endloop
endfacet
facet normal -0.13034448288895864 0.9914687669127593 4.111264342166684e-06
  outer loop
    vertex 506.7940707531082 -54.14824035284992 5.599977919816029
    vertex 506.5999696058919 -54.17380382080505 16.634634330501953
    vertex 506.7940707546588 -54.14829948808784 16.634634404400106
  endloop
endfacet
facet normal -0.1303434987328391 -0.991468896302435 -1.7070643774314938e-06
  outer loop
    vertex 506.79407149741735 -55.64788233385254 5.599971402160024
    vertex 506.5999703248575 -55.62238381427242 16.634630133246556
    vertex 506.59997032328044 -55.622351436419024 5.599973648584945
  endloop
endfacet
facet normal -0.1303434987328391 -0.991468896302435 -1.7070643774314938e-06
  outer loop
    vertex 506.5999703248575 -55.62238381427242 16.634630133246556
    vertex 506.79407149741735 -55.64788233385254 5.599971402160024
    vertex 506.7940714989414 -55.647887954315266 16.63463005934784
  endloop
endfacet
facet normal -0.3824928357876276 -0.9239584571634103 -2.7110212520845872e-06
  outer loop
    vertex 506.59997032328044 -55.622351436419024 5.599973648584945
    vertex 506.41908736933175 -55.547503353936 16.634630350212944
    vertex 506.4190873677547 -55.54747097608261 5.599973865551333
  endloop
endfacet
facet normal -0.3824928357876276 -0.9239584571634103 -2.7110212520845872e-06
  outer loop
    vertex 506.41908736933175 -55.547503353936 16.634630350212944
    vertex 506.59997032328044 -55.622351436419024 5.599973648584945
    vertex 506.5999703248575 -55.62238381427242 16.634630133246556
  endloop
endfacet
facet normal -0.608634040993237 -0.7934510723030267 -2.3280545849851436e-06
  outer loop
    vertex 506.4190873677547 -55.54747097608261 5.599973865551333
    vertex 506.26375378922256 -55.428351325710075 16.634630695455968
    vertex 506.26375378764556 -55.42831894785669 5.599974210794359
  endloop
endfacet
facet normal -0.608634040993237 -0.7934510723030267 -2.3280545849851436e-06
  outer loop
    vertex 506.26375378922256 -55.428351325710075 16.634630695455968
    vertex 506.4190873677547 -55.54747097608261 5.599973865551333
    vertex 506.41908736933175 -55.547503353936 16.634630350212944
  endloop
endfacet
facet normal -0.7932834328475362 -0.6088525233309272 -1.7863797290470112e-06
  outer loop
    vertex 506.26375378922256 -55.428351325710075 16.634630695455968
    vertex 506.144558987224 -55.27301818645408 5.599974660778108
    vertex 506.26375378764556 -55.42831894785669 5.599974210794359
  endloop
endfacet
facet normal -0.7932834328475362 -0.6088525233309272 -1.7863797290470112e-06
  outer loop
    vertex 506.144558987224 -55.27301818645408 5.599974660778108
    vertex 506.26375378922256 -55.428351325710075 16.634630695455968
    vertex 506.1445589888011 -55.27305056430747 16.63463114543972
  endloop
endfacet
facet normal -0.9238530889108675 -0.3827472666245808 -1.1229237545713073e-06
  outer loop
    vertex 506.1445589888011 -55.27305056430747 16.63463114543972
    vertex 506.0696287170698 -55.092155858827915 5.5999751848262775
    vertex 506.144558987224 -55.27301818645408 5.599974660778108
  endloop
endfacet
facet normal -0.9238530889108675 -0.3827472666245808 -1.1229237545713073e-06
  outer loop
    vertex 506.0696287170698 -55.092155858827915 5.5999751848262775
    vertex 506.1445589888011 -55.27305056430747 16.63463114543972
    vertex 506.0696287186469 -55.0921882366813 16.634631669487884
  endloop
endfacet
facet normal -0.9914418116918657 -0.13054935476288004 -3.829157969754396e-07
  outer loop
    vertex 506.0696287186469 -55.0921882366813 16.634631669487884
    vertex 506.04407112522307 -54.89806171559152 5.599975747213443
    vertex 506.0696287170698 -55.092155858827915 5.5999751848262775
  endloop
endfacet
facet normal -0.9914418116918657 -0.13054935476288004 -3.829157969754396e-07
  outer loop
    vertex 506.04407112522307 -54.89806171559152 5.599975747213443
    vertex 506.0696287186469 -55.0921882366813 16.634631669487884
    vertex 506.0440711268002 -54.898094093444904 16.634632231875052
  endloop
endfacet
facet normal -0.9914419412810388 0.13054837060928207 3.831963048307546e-07
  outer loop
    vertex 506.0440711268002 -54.898094093444904 16.634632231875052
    vertex 506.06962852440245 -54.70396754698551 5.599976309600537
    vertex 506.04407112522307 -54.89806171559152 5.599975747213443
  endloop
endfacet
facet normal -0.9914419412810388 0.13054837060928207 3.831963048307546e-07
  outer loop
    vertex 506.06962852440245 -54.70396754698551 5.599976309600537
    vertex 506.0440711268002 -54.898094093444904 16.634632231875052
    vertex 506.06962852597957 -54.7039999248389 16.634632794262146
  endloop
endfacet
facet normal -0.9238534688440676 0.3827463495626343 1.1231851396386392e-06
  outer loop
    vertex 506.06962852597957 -54.7039999248389 16.634632794262146
    vertex 506.1445586150238 -54.52310514498002 5.59997683364849
    vertex 506.06962852440245 -54.70396754698551 5.599976309600537
  endloop
endfacet
facet normal -0.9238534688440676 0.3827463495626343 1.1231851396386392e-06
  outer loop
    vertex 506.1445586150238 -54.52310514498002 5.59997683364849
    vertex 506.06962852597957 -54.7039999248389 16.634632794262146
    vertex 506.1445586166009 -54.52313752283341 16.6346333183101
  endloop
endfacet
facet normal -0.7932840372238705 0.6088517358787813 1.7866041721781728e-06
  outer loop
    vertex 506.1445586166009 -54.52313752283341 16.6346333183101
    vertex 506.26375326128624 -54.36780426525891 5.599977283631895
    vertex 506.1445586150238 -54.52310514498002 5.59997683364849
  endloop
endfacet
facet normal -0.7932840372238705 0.6088517358787813 1.7866041721781728e-06
  outer loop
    vertex 506.26375326128624 -54.36780426525891 5.599977283631895
    vertex 506.1445586166009 -54.52313752283341 16.6346333183101
    vertex 506.26375326286325 -54.3678366431123 16.634633768293504
  endloop
endfacet
facet normal -0.608634828611487 0.7934504681425586 2.3282267854371898e-06
  outer loop
    vertex 506.26375326286325 -54.3678366431123 16.634633768293504
    vertex 506.41908672311905 -54.248652082841254 5.599977628874475
    vertex 506.26375326128624 -54.36780426525891 5.599977283631895
  endloop
endfacet
facet normal -0.608634828611487 0.7934504681425586 2.3282267854371898e-06
  outer loop
    vertex 506.41908672311905 -54.248652082841254 5.599977628874475
    vertex 506.26375326286325 -54.3678366431123 16.634633768293504
    vertex 506.4190867246962 -54.24868446069464 16.634634113536084
  endloop
endfacet
facet normal -0.38249375295354743 0.9239580774819605 2.7111294706051954e-06
  outer loop
    vertex 506.4190867246962 -54.24868446069464 16.634634113536084
    vertex 506.59996960431477 -54.17377144295166 5.599977845840344
    vertex 506.41908672311905 -54.248652082841254 5.599977628874475
  endloop
endfacet
facet normal -0.38249375295354743 0.9239580774819605 2.7111294706051954e-06
  outer loop
    vertex 506.59996960431477 -54.17377144295166 5.599977845840344
    vertex 506.4190867246962 -54.24868446069464 16.634634113536084
    vertex 506.5999696058919 -54.17380382080505 16.634634330501953
  endloop
endfacet
facet normal -0.12918466870170905 -0.9831700019259442 0.12918230794256985
  outer loop
    vertex 506.7940714989414 -55.647887954315266 16.63463005934784
    vertex 506.7940714862833 -55.62238428034267 16.828731294670778
    vertex 506.5999703248575 -55.62238381427242 16.634630133246556
  endloop
endfacet
facet normal -0.35725140599923755 -0.86298571621629 0.357249333824746
  outer loop
    vertex 506.5999703248575 -55.62238381427242 16.634630133246556
    vertex 506.7940714491185 -55.54750425433731 17.009614429996923
    vertex 506.41908736933175 -55.547503353936 16.634630350212944
  endloop
endfacet
facet normal -0.35725140599923755 -0.86298571621629 0.357249333824746
  outer loop
    vertex 506.7940714491185 -55.54750425433731 17.009614429996923
    vertex 506.5999703248575 -55.62238381427242 16.634630133246556
    vertex 506.7940714862833 -55.62238428034267 16.828731294670778
  endloop
endfacet
facet normal -0.5199084539626392 -0.6777846938877843 0.5199068264887671
  outer loop
    vertex 506.41908736933175 -55.547503353936 16.634630350212944
    vertex 506.7940713899806 -55.428352599093856 17.164948296210117
    vertex 506.26375378922256 -55.428351325710075 16.634630695455968
  endloop
endfacet
facet normal -0.5199084539626392 -0.6777846938877843 0.5199068264887671
  outer loop
    vertex 506.7940713899806 -55.428352599093856 17.164948296210117
    vertex 506.41908736933175 -55.547503353936 16.634630350212944
    vertex 506.7940714491185 -55.54750425433731 17.009614429996923
  endloop
endfacet
facet normal -0.6214811743971301 -0.4769944688932413 0.6214800290558167
  outer loop
    vertex 506.7940713899806 -55.428352599093856 17.164948296210117
    vertex 506.1445589888011 -55.27305056430747 16.63463114543972
    vertex 506.26375378922256 -55.428351325710075 16.634630695455968
  endloop
endfacet
facet normal -0.6214811743971301 -0.4769944688932413 0.6214800290558167
  outer loop
    vertex 506.1445589888011 -55.27305056430747 16.63463114543972
    vertex 506.7940713899806 -55.428352599093856 17.164948296210117
    vertex 506.7940713129012 -55.27305212389826 17.28414346953521
  endloop
endfacet
facet normal -0.6785878012507862 -0.2811371696405384 0.6785871261968729
  outer loop
    vertex 506.7940713129012 -55.27305212389826 17.28414346953521
    vertex 506.0696287186469 -55.0921882366813 16.634631669487884
    vertex 506.1445589888011 -55.27305056430747 16.63463114543972
  endloop
endfacet
facet normal -0.6785878012507862 -0.2811371696405384 0.6785871261968729
  outer loop
    vertex 506.0696287186469 -55.0921882366813 16.634631669487884
    vertex 506.7940713129012 -55.27305212389826 17.28414346953521
    vertex 506.7940712231349 -55.09218997619246 17.359074173970736
  endloop
endfacet
facet normal -0.7040614772557704 -0.09271022569604265 0.7040612546474995
  outer loop
    vertex 506.7940712231349 -55.09218997619246 17.359074173970736
    vertex 506.0440711268002 -54.898094093444904 16.634632231875052
    vertex 506.0696287186469 -55.0921882366813 16.634631669487884
  endloop
endfacet
facet normal -0.7040614772557704 -0.09271022569604265 0.7040612546474995
  outer loop
    vertex 506.0440711268002 -54.898094093444904 16.634632231875052
    vertex 506.7940712231349 -55.09218997619246 17.359074173970736
    vertex 506.7940711268012 -54.89809589432394 17.384632231870828
  endloop
endfacet
facet normal -0.7040615692821305 0.09270544677847369 0.7040617918887428
  outer loop
    vertex 506.0440711268002 -54.898094093444904 16.634632231875052
    vertex 506.7940710304674 -54.70400166435006 17.35907529874505
    vertex 506.06962852597957 -54.7039999248389 16.634632794262146
  endloop
endfacet
facet normal -0.7040615692821305 0.09270544677847369 0.7040617918887428
  outer loop
    vertex 506.7940710304674 -54.70400166435006 17.35907529874505
    vertex 506.0440711268002 -54.898094093444904 16.634632231875052
    vertex 506.7940711268012 -54.89809589432394 17.384632231870828
  endloop
endfacet
facet normal -0.6785880803190937 0.2811325636284513 0.6785887553714269
  outer loop
    vertex 506.06962852597957 -54.7039999248389 16.634632794262146
    vertex 506.7940709407009 -54.52313908242429 17.28414564240569
    vertex 506.1445586166009 -54.52313752283341 16.6346333183101
  endloop
endfacet
facet normal -0.6785880803190937 0.2811325636284513 0.6785887553714269
  outer loop
    vertex 506.7940709407009 -54.52313908242429 17.28414564240569
    vertex 506.06962852597957 -54.7039999248389 16.634632794262146
    vertex 506.7940710304674 -54.70400166435006 17.35907529874505
  endloop
endfacet
facet normal -0.6214816478832172 0.47699025049991495 0.6214827932231022
  outer loop
    vertex 506.1445586166009 -54.52313752283341 16.6346333183101
    vertex 506.7940708636211 -54.36783791649608 17.164951369047795
    vertex 506.26375326286325 -54.3678366431123 16.634633768293504
  endloop
endfacet
facet normal -0.6214816478832172 0.47699025049991495 0.6214827932231022
  outer loop
    vertex 506.7940708636211 -54.36783791649608 17.164951369047795
    vertex 506.1445586166009 -54.52313752283341 16.6346333183101
    vertex 506.7940709407009 -54.52313908242429 17.28414564240569
  endloop
endfacet
facet normal -0.5199091267633734 0.6777811649329605 0.5199107542360186
  outer loop
    vertex 506.7940708636211 -54.36783791649608 17.164951369047795
    vertex 506.4190867246962 -54.24868446069464 16.634634113536084
    vertex 506.26375326286325 -54.3678366431123 16.634633768293504
  endloop
endfacet
facet normal -0.5199091267633734 0.6777811649329605 0.5199107542360186
  outer loop
    vertex 506.4190867246962 -54.24868446069464 16.634634113536084
    vertex 506.7940708636211 -54.36783791649608 17.164951369047795
    vertex 506.7940708044828 -54.24868536109595 17.00961819332024
  endloop
endfacet
facet normal -0.12918564464438015 0.9831691250633112 0.1291880054032081
  outer loop
    vertex 506.79407076731746 -54.1738042868753 16.828735491926366
    vertex 506.7940707546588 -54.14829948808784 16.634634404400106
    vertex 506.5999696058919 -54.17380382080505 16.634634330501953
  endloop
endfacet
facet normal -0.35725226264005977 0.8629832913187651 0.35725433481371427
  outer loop
    vertex 506.7940708044828 -54.24868536109595 17.00961819332024
    vertex 506.5999696058919 -54.17380382080505 16.634634330501953
    vertex 506.4190867246962 -54.24868446069464 16.634634113536084
  endloop
endfacet
facet normal -0.35725226264005977 0.8629832913187651 0.35725433481371427
  outer loop
    vertex 506.5999696058919 -54.17380382080505 16.634634330501953
    vertex 506.7940708044828 -54.24868536109595 17.00961819332024
    vertex 506.79407076731746 -54.1738042868753 16.828735491926366
  endloop
endfacet
facet normal -0.12931878725430815 -0.9831475069729746 -0.12921931278218446
  outer loop
    vertex 506.79407149741735 -55.64788233385254 5.599971402160024
    vertex 506.59997032328044 -55.622351436419024 5.599973648584945
    vertex 506.7940714847552 -55.622370570490524 5.405868644837071
  endloop
endfacet
facet normal -0.35728605142314684 -0.8629748527645105 -0.35724092844259636
  outer loop
    vertex 506.7940714475869 -55.547483412661435 5.224985688032191
    vertex 506.59997032328044 -55.622351436419024 5.599973648584945
    vertex 506.4190873677547 -55.54747097608261 5.599973865551333
  endloop
endfacet
facet normal -0.35728605142314684 -0.8629748527645105 -0.35724092844259636
  outer loop
    vertex 506.59997032328044 -55.622351436419024 5.599973648584945
    vertex 506.7940714475869 -55.547483412661435 5.224985688032191
    vertex 506.7940714847552 -55.622370570490524 5.405868644837071
  endloop
endfacet
facet normal -0.5199238754674917 -0.6777732341271006 -0.5199063442772696
  outer loop
    vertex 506.79407138844607 -55.42832583875799 5.069653131716234
    vertex 506.4190873677547 -55.54747097608261 5.599973865551333
    vertex 506.26375378764556 -55.42831894785669 5.599974210794359
  endloop
endfacet
facet normal -0.5199238754674917 -0.6777732341271006 -0.5199063442772696
  outer loop
    vertex 506.4190873677547 -55.54747097608261 5.599973865551333
    vertex 506.79407138844607 -55.42832583875799 5.069653131716234
    vertex 506.7940714475869 -55.547483412661435 5.224985688032191
  endloop
endfacet
facet normal -0.6214876987505704 -0.47698464300577564 -0.6214810460813531
  outer loop
    vertex 506.79407138844607 -55.42832583875799 5.069653131716234
    vertex 506.144558987224 -55.27301818645408 5.599974660778108
    vertex 506.79407131136435 -55.27302069464288 4.95045983206567
  endloop
endfacet
facet normal -0.6214876987505704 -0.47698464300577564 -0.6214810460813531
  outer loop
    vertex 506.144558987224 -55.27301818645408 5.599974660778108
    vertex 506.79407138844607 -55.42832583875799 5.069653131716234
    vertex 506.26375378764556 -55.42831894785669 5.599974210794359
  endloop
endfacet
facet normal -0.678590211864202 -0.281129440577375 -0.6785879176663477
  outer loop
    vertex 506.79407131136435 -55.27302069464288 4.95045983206567
    vertex 506.0696287170698 -55.092155858827915 5.5999751848262775
    vertex 506.7940712215962 -55.09215496783183 4.875531070329529
  endloop
endfacet
facet normal -0.678590211864202 -0.281129440577375 -0.6785879176663477
  outer loop
    vertex 506.0696287170698 -55.092155858827915 5.5999751848262775
    vertex 506.79407131136435 -55.27302069464288 4.95045983206567
    vertex 506.144558987224 -55.27301818645408 5.599974660778108
  endloop
endfacet
facet normal -0.7040622356750865 -0.09270457542617165 -0.7040612402279026
  outer loop
    vertex 506.7940712215962 -55.09215496783183 4.875531070329529
    vertex 506.04407112522307 -54.89806171559152 5.599975747213443
    vertex 506.7940711252612 -54.898058083745205 4.84997466099515
  endloop
endfacet
facet normal -0.7040622356750865 -0.09270457542617165 -0.7040612402279026
  outer loop
    vertex 506.04407112522307 -54.89806171559152 5.599975747213443
    vertex 506.7940712215962 -55.09215496783183 4.875531070329529
    vertex 506.0696287170698 -55.092155858827915 5.5999751848262775
  endloop
endfacet
facet normal -0.7040622623739893 0.09270898528158024 -0.7040606328640167
  outer loop
    vertex 506.04407112522307 -54.89806171559152 5.599975747213443
    vertex 506.7940710289263 -54.703961421809396 4.8755327574735485
    vertex 506.7940711252612 -54.898058083745205 4.84997466099515
  endloop
endfacet
facet normal -0.7040622623739893 0.09270898528158024 -0.7040606328640167
  outer loop
    vertex 506.7940710289263 -54.703961421809396 4.8755327574735485
    vertex 506.04407112522307 -54.89806171559152 5.599975747213443
    vertex 506.06962852440245 -54.70396754698551 5.599976309600537
  endloop
endfacet
facet normal -0.6785902795580813 0.281133760125221 -0.6785860604279605
  outer loop
    vertex 506.06962852440245 -54.70396754698551 5.599976309600537
    vertex 506.7940709391585 -54.52309634630719 4.95046309134288
    vertex 506.7940710289263 -54.703961421809396 4.8755327574735485
  endloop
endfacet
facet normal -0.6785902795580813 0.281133760125221 -0.6785860604279605
  outer loop
    vertex 506.7940709391585 -54.52309634630719 4.95046309134288
    vertex 506.06962852440245 -54.70396754698551 5.599976309600537
    vertex 506.1445586150238 -54.52310514498002 5.59997683364849
  endloop
endfacet
facet normal -0.6214877671805817 0.4769887327210209 -0.6214778387859775
  outer loop
    vertex 506.1445586150238 -54.52310514498002 5.59997683364849
    vertex 506.7940708620772 -54.36779223825986 5.069657740945155
    vertex 506.7940709391585 -54.52309634630719 4.95046309134288
  endloop
endfacet
facet normal -0.6214877671805817 0.4769887327210209 -0.6214778387859775
  outer loop
    vertex 506.7940708620772 -54.36779223825986 5.069657740945155
    vertex 506.1445586150238 -54.52310514498002 5.59997683364849
    vertex 506.26375326128624 -54.36780426525891 5.599977283631895
  endloop
endfacet
facet normal -0.5199238768613081 0.6777768299756578 -0.519901655140331
  outer loop
    vertex 506.41908672311905 -54.248652082841254 5.599977628874475
    vertex 506.7940708620772 -54.36779223825986 5.069657740945155
    vertex 506.26375326128624 -54.36780426525891 5.599977283631895
  endloop
endfacet
facet normal -0.5199238768613081 0.6777768299756578 -0.519901655140331
  outer loop
    vertex 506.7940708620772 -54.36779223825986 5.069657740945155
    vertex 506.41908672311905 -54.248652082841254 5.599977628874475
    vertex 506.79407080293703 -54.24863601455538 5.22499133300656
  endloop
endfacet
facet normal -0.12931838948272711 0.9831486793995974 -0.12921079032503974
  outer loop
    vertex 506.7940707657695 -54.173750429014795 5.405874940744951
    vertex 506.59996960431477 -54.17377144295166 5.599977845840344
    vertex 506.7940707531082 -54.14824035284992 5.599977919816029
  endloop
endfacet
facet normal -0.3572859527832498 0.8629774711645475 -0.3572347018504893
  outer loop
    vertex 506.59996960431477 -54.17377144295166 5.599977845840344
    vertex 506.79407080293703 -54.24863601455538 5.22499133300656
    vertex 506.41908672311905 -54.248652082841254 5.599977628874475
  endloop
endfacet
facet normal -0.3572859527832498 0.8629774711645475 -0.3572347018504893
  outer loop
    vertex 506.79407080293703 -54.24863601455538 5.22499133300656
    vertex 506.59996960431477 -54.17377144295166 5.599977845840344
    vertex 506.7940707657695 -54.173750429014795 5.405874940744951
  endloop
endfacet
facet normal -0.8320456670709714 0.5547071370609467 1.4388784480485276e-06
  outer loop
    vertex 504.7940766561552 -58.64745224379412 8.167267585207757
    vertex 505.7940737062527 -57.147474785271605 4.6999115431633935
    vertex 504.79407434151744 -58.647435149653525 4.699904965825024
  endloop
endfacet
facet normal -0.8320456670709714 0.5547071370609467 1.4388784480485276e-06
  outer loop
    vertex 505.7940737062527 -57.147474785271605 4.6999115431633935
    vertex 504.7940766561552 -58.64745224379412 8.167267585207757
    vertex 505.7940737055176 -57.14747220857926 8.167267529476405
  endloop
endfacet
facet normal 4.0401684348381995e-07 -0.9999999999927711 -3.7808529363569935e-06
  outer loop
    vertex 504.8281485152103 -58.647434653739005 4.441085920852456
    vertex 504.7940766561552 -58.64745224379412 8.167267585207757
    vertex 504.79407434151744 -58.647435149653525 4.699904965825024
  endloop
endfacet
facet normal 4.0401684348381995e-07 -0.9999999999927711 -3.7808529363569935e-06
  outer loop
    vertex 504.7940766561552 -58.64745224379412 8.167267585207757
    vertex 504.8281485152103 -58.647434653739005 4.441085920852456
    vertex 505.7940766561557 -58.64745195294755 8.167267585245703
  endloop
endfacet
facet normal 4.0401684348381995e-07 -0.9999999999927711 -3.7808529363569935e-06
  outer loop
    vertex 505.7940766561557 -58.64745195294755 8.167267585245703
    vertex 504.8281485152103 -58.647434653739005 4.441085920852456
    vertex 504.92804893766396 -58.64743414627788 4.1999049660759
  endloop
endfacet
facet normal 4.0401684348381995e-07 -0.9999999999927711 -3.7808529363569935e-06
  outer loop
    vertex 505.7940766561557 -58.64745195294755 8.167267585245703
    vertex 504.92804893766396 -58.64743414627788 4.1999049660759
    vertex 505.08696756018145 -58.64743366185257 3.9927981849930045
  endloop
endfacet
facet normal 4.0401684348381995e-07 -0.9999999999927711 -3.7808529363569935e-06
  outer loop
    vertex 505.7940766561557 -58.64745195294755 8.167267585245703
    vertex 505.08696756018145 -58.64743366185257 3.9927981849930045
    vertex 505.29407434126364 -58.647433233476285 3.8338795624744306
  endloop
endfacet
facet normal 4.0401684348381995e-07 -0.9999999999927711 -3.7808529363569935e-06
  outer loop
    vertex 505.7940766561557 -58.64745195294755 8.167267585245703
    vertex 505.29407434126364 -58.647433233476285 3.8338795624744306
    vertex 505.5352552960399 -58.64743289034185 3.733979140019381
  endloop
endfacet
facet normal 4.0401684348381995e-07 -0.9999999999927711 -3.7808529363569935e-06
  outer loop
    vertex 505.7940766561557 -58.64745195294755 8.167267585245703
    vertex 505.5352552960399 -58.64743289034185 3.733979140019381
    vertex 505.7940743410127 -58.647432655833256 3.699904966324908
  endloop
endfacet
facet normal 4.0401684348381995e-07 -0.9999999999927711 -3.7808529363569935e-06
  outer loop
    vertex 505.7940766561557 -58.64745195294755 8.167267585245703
    vertex 505.7940743410127 -58.647432655833256 3.699904966324908
    vertex 563.5051378251239 -58.64741016658316 3.6999049685338288
  endloop
endfacet
facet normal 4.0401684348381995e-07 -0.9999999999927711 -3.7808529363569935e-06
  outer loop
    vertex 505.7940766561557 -58.64745195294755 8.167267585245703
    vertex 563.5051378251239 -58.64741016658316 3.6999049685338288
    vertex 505.79407665771186 -58.647471332279494 14.167267585217338
  endloop
endfacet
facet normal 4.0401684348381995e-07 -0.9999999999927711 -3.7808529363569935e-06
  outer loop
    vertex 505.79407665771186 -58.647471332279494 14.167267585217338
    vertex 504.7940743418561 -58.647487154577156 17.63461694116108
    vertex 504.7940724698383 -58.64747173404117 14.167267585217338
  endloop
endfacet
facet normal 4.0401684348381995e-07 -0.9999999999927711 -3.7808529363569935e-06
  outer loop
    vertex 504.7940743418561 -58.647487154577156 17.63461694116108
    vertex 505.79407665771186 -58.647471332279494 14.167267585217338
    vertex 504.82814851553513 -58.64748794841514 17.893435986043684
  endloop
endfacet
facet normal 4.0401684348381995e-07 -0.9999999999927711 -3.7808529363569935e-06
  outer loop
    vertex 504.82814851553513 -58.64748794841514 17.893435986043684
    vertex 505.79407665771186 -58.647471332279494 14.167267585217338
    vertex 504.92804893795244 -58.64748862414644 18.13461694073722
  endloop
endfacet
facet normal 4.0401684348381995e-07 -0.9999999999927711 -3.7808529363569935e-06
  outer loop
    vertex 504.92804893795244 -58.64748862414644 18.13461694073722
    vertex 505.79407665771186 -58.647471332279494 14.167267585217338
    vertex 505.08696756041337 -58.64748913572137 18.341723721749695
  endloop
endfacet
facet normal 4.0401684348381995e-07 -0.9999999999927711 -3.7808529363569935e-06
  outer loop
    vertex 505.08696756041337 -58.64748913572137 18.341723721749695
    vertex 505.79407665771186 -58.647471332279494 14.167267585217338
    vertex 505.29407434142263 -58.64748944827708 18.500642344215244
  endloop
endfacet
facet normal 4.0401684348381995e-07 -0.9999999999927711 -3.7808529363569935e-06
  outer loop
    vertex 505.29407434142263 -58.64748944827708 18.500642344215244
    vertex 505.79407665771186 -58.647471332279494 14.167267585217338
    vertex 505.5352552961147 -58.64748954051334 18.60054276663829
  endloop
endfacet
facet normal 4.0401684348381995e-07 -0.9999999999927711 -3.7808529363569935e-06
  outer loop
    vertex 505.5352552961147 -58.64748954051334 18.60054276663829
    vertex 505.79407665771186 -58.647471332279494 14.167267585217338
    vertex 505.79407434099767 -58.64748940614433 18.634616940323944
  endloop
endfacet
facet normal 4.0401684348381995e-07 -0.9999999999927711 -3.7808529363569935e-06
  outer loop
    vertex 505.79407434099767 -58.64748940614433 18.634616940323944
    vertex 505.79407665771186 -58.647471332279494 14.167267585217338
    vertex 563.5051378251352 -58.64746565417478 18.634616941218137
  endloop
endfacet
facet normal 4.0401684348381995e-07 -0.9999999999927711 -3.7808529363569935e-06
  outer loop
    vertex 563.5051378251352 -58.64746565417478 18.634616941218137
    vertex 505.79407665771186 -58.647471332279494 14.167267585217338
    vertex 563.5051378251239 -58.64741016658316 3.6999049685338288
  endloop
endfacet
facet normal 4.0401684348381995e-07 -0.9999999999927711 -3.7808529363569935e-06
  outer loop
    vertex 563.5051378251352 -58.64746565417478 18.634616941218137
    vertex 563.5051378251239 -58.64741016658316 3.6999049685338288
    vertex 563.7639568700077 -58.647410173538745 3.7339791422223882
  endloop
endfacet
facet normal 4.0401684348381995e-07 -0.9999999999927711 -3.7808529363569935e-06
  outer loop
    vertex 563.5051378251352 -58.64746565417478 18.634616941218137
    vertex 563.7639568700077 -58.647410173538745 3.7339791422223882
    vertex 563.7639568702253 -58.647465385943335 18.600542767509886
  endloop
endfacet
facet normal 4.0401684348381995e-07 -0.9999999999927711 -3.7808529363569935e-06
  outer loop
    vertex 563.7639568702253 -58.647465385943335 18.600542767509886
    vertex 563.7639568700077 -58.647410173538745 3.7339791422223882
    vertex 564.0051378247 -58.64741043019089 3.833879564648375
  endloop
endfacet
facet normal 4.0401684348381995e-07 -0.9999999999927711 -3.7808529363569935e-06
  outer loop
    vertex 563.7639568702253 -58.647465385943335 18.600542767509886
    vertex 564.0051378247 -58.64741043019089 3.833879564648375
    vertex 564.0051378251113 -58.64746487714594 18.500642345011503
  endloop
endfacet
facet normal 4.0401684348381995e-07 -0.9999999999927711 -3.7808529363569935e-06
  outer loop
    vertex 564.0051378251113 -58.64746487714594 18.500642345011503
    vertex 564.0051378247 -58.64741043019089 3.833879564648375
    vertex 564.2122446057085 -58.64741091904946 3.9927981871167146
  endloop
endfacet
facet normal 4.0401684348381995e-07 -0.9999999999927711 -3.7808529363569935e-06
  outer loop
    vertex 564.0051378251113 -58.64746487714594 18.500642345011503
    vertex 564.2122446057085 -58.64741091904946 3.9927981871167146
    vertex 564.2122446062881 -58.64746416245635 18.34172372242301
  endloop
endfacet
facet normal 4.0401684348381995e-07 -0.9999999999927711 -3.7808529363569935e-06
  outer loop
    vertex 564.2122446062881 -58.64746416245635 18.34172372242301
    vertex 564.2122446057085 -58.64741091904946 3.9927981871167146
    vertex 564.3711632281679 -58.64741160679947 4.199904968131629
  endloop
endfacet
facet normal 4.0401684348381995e-07 -0.9999999999927711 -3.7808529363569935e-06
  outer loop
    vertex 564.2122446062881 -58.64746416245635 18.34172372242301
    vertex 564.3711632281679 -58.64741160679947 4.199904968131629
    vertex 564.3711632288786 -58.64746329057972 18.134616941248357
  endloop
endfacet
facet normal 4.0401684348381995e-07 -0.9999999999927711 -3.7808529363569935e-06
  outer loop
    vertex 564.3711632288786 -58.64746329057972 18.134616941248357
    vertex 564.3711632281679 -58.64741160679947 4.199904968131629
    vertex 564.4710636505828 -58.647412446571785 4.441085922827091
  endloop
endfacet
facet normal 4.0401684348381995e-07 -0.9999999999927711 -3.7808529363569935e-06
  outer loop
    vertex 564.3711632288786 -58.64746329057972 18.134616941248357
    vertex 564.4710636505828 -58.647412446571785 4.441085922827091
    vertex 564.4710636513787 -58.64746232093268 17.89343598636447
  endloop
endfacet
facet normal 4.0401684348381995e-07 -0.9999999999927711 -3.7808529363569935e-06
  outer loop
    vertex 564.4710636513787 -58.64746232093268 17.89343598636447
    vertex 564.4710636505828 -58.647412446571785 4.441085922827091
    vertex 564.5051378242589 -58.64741338113736 4.699904967710976
  endloop
endfacet
facet normal 4.0401684348381995e-07 -0.9999999999927711 -3.7808529363569935e-06
  outer loop
    vertex 564.4710636513787 -58.64746232093268 17.89343598636447
    vertex 564.5051378242589 -58.64741338113736 4.699904967710976
    vertex 564.5051378250882 -58.64746131959515 17.63461694127631
  endloop
endfacet
facet normal -6.442711288464304e-07 0.9999999999967695 2.458851782019099e-06
  outer loop
    vertex 506.7940737055169 -57.14747205996781 8.167267529476405
    vertex 505.7940737062527 -57.147474785271605 4.6999115431633935
    vertex 505.7940737055176 -57.14747220857926 8.167267529476405
  endloop
endfacet
facet normal -6.442711288464304e-07 0.9999999999967695 2.458851782019099e-06
  outer loop
    vertex 505.7940737062527 -57.147474785271605 4.6999115431633935
    vertex 506.7940737055169 -57.14747205996781 8.167267529476405
    vertex 506.79407224167346 -57.147417285304776 5.599969229711497
  endloop
endfacet
facet normal -6.442711288464304e-07 0.9999999999967695 2.458851782019099e-06
  outer loop
    vertex 505.7940737062524 -57.147474304709974 17.634623515810656
    vertex 506.79407224322404 -57.147476420542695 16.634625714295577
    vertex 505.7940737070683 -57.14747825993105 14.167267529493367
  endloop
endfacet
facet normal -6.442711288464304e-07 0.9999999999967695 2.458851782019099e-06
  outer loop
    vertex 506.79407224322404 -57.147476420542695 16.634625714295577
    vertex 505.7940737062524 -57.147474304709974 17.634623515810656
    vertex 563.5051371886551 -57.147474413704444 17.634623515810397
  endloop
endfacet
facet normal -6.442711288464304e-07 0.9999999999967695 2.458851782019099e-06
  outer loop
    vertex 506.79407224322404 -57.147476420542695 16.634625714295577
    vertex 563.5051371886551 -57.147474413704444 17.634623515810397
    vertex 562.5051349271148 -57.14742250871329 16.634625714295577
  endloop
endfacet
facet normal -6.442711288464304e-07 0.9999999999967695 2.458851782019099e-06
  outer loop
    vertex 506.79407224167346 -57.147417285304776 5.599969229711497
    vertex 563.5051371886555 -57.14741177387487 4.699911543163131
    vertex 505.7940737062527 -57.147474785271605 4.6999115431633935
  endloop
endfacet
facet normal -6.442711288464304e-07 0.9999999999967695 2.458851782019099e-06
  outer loop
    vertex 563.5051371886555 -57.14741177387487 4.699911543163131
    vertex 506.79407224167346 -57.147417285304776 5.599969229711497
    vertex 562.5051349255641 -57.14741688824426 5.599969229711498
  endloop
endfacet
facet normal -6.442711288464304e-07 0.9999999999967695 2.458851782019099e-06
  outer loop
    vertex 563.5051371886555 -57.14741177387487 4.699911543163131
    vertex 562.5051349255641 -57.14741688824426 5.599969229711498
    vertex 562.5051349271148 -57.14742250871329 16.634625714295577
  endloop
endfacet
facet normal -6.442711288464304e-07 0.9999999999967695 2.458851782019099e-06
  outer loop
    vertex 563.5051371886555 -57.14741177387487 4.699911543163131
    vertex 562.5051349271148 -57.14742250871329 16.634625714295577
    vertex 563.5051371886551 -57.147474413704444 17.634623515810397
  endloop
endfacet
facet normal -6.442711288464304e-07 0.9999999999967695 2.458851782019099e-06
  outer loop
    vertex 506.79407370706775 -57.14747825993103 14.167267529493367
    vertex 505.7940737070683 -57.14747825993105 14.167267529493367
    vertex 506.79407224322404 -57.147476420542695 16.634625714295577
  endloop
endfacet
facet normal 7.46261909264529e-15 -3.714948506453273e-08 -0.9999999999999993
  outer loop
    vertex 505.79407665771186 -58.647471332279494 14.167267585217338
    vertex 505.7940737070683 -57.14747825993105 14.167267529493367
    vertex 506.79407370706775 -57.14747825993103 14.167267529493367
  endloop
endfacet
facet normal 7.46261909264529e-15 -3.714948506453273e-08 -0.9999999999999993
  outer loop
    vertex 505.7940737070683 -57.14747825993105 14.167267529493367
    vertex 505.79407665771186 -58.647471332279494 14.167267585217338
    vertex 504.7940724698383 -58.64747173404117 14.167267585217338
  endloop
endfacet
facet normal -1.89809031269777e-11 3.718003428442418e-08 0.9999999999999993
  outer loop
    vertex 505.7940737055176 -57.14747220857926 8.167267529476405
    vertex 505.7940766561557 -58.64745195294755 8.167267585245703
    vertex 506.7940737055169 -57.14747205996781 8.167267529476405
  endloop
endfacet
facet normal -1.89809031269777e-11 3.718003428442418e-08 0.9999999999999993
  outer loop
    vertex 505.7940766561557 -58.64745195294755 8.167267585245703
    vertex 505.7940737055176 -57.14747220857926 8.167267529476405
    vertex 504.7940766561552 -58.64745224379412 8.167267585207757
  endloop
endfacet
facet normal -0.8320487426396161 0.5547025237642563 1.1826237326562504e-06
  outer loop
    vertex 505.7940766561557 -58.64745195294755 8.167267585245703
    vertex 506.79407370706775 -57.14747825993103 14.167267529493367
    vertex 506.7940737055169 -57.14747205996781 8.167267529476405
  endloop
endfacet
facet normal -0.8320487426396161 0.5547025237642563 1.1826237326562504e-06
  outer loop
    vertex 506.79407370706775 -57.14747825993103 14.167267529493367
    vertex 505.7940766561557 -58.64745195294755 8.167267585245703
    vertex 505.79407665771186 -58.647471332279494 14.167267585217338
  endloop
endfacet
facet normal -2.707148135449891e-12 2.8974964527240726e-06 -0.9999999999958022
  outer loop
    vertex 524.2940724917937 -57.64827902162042 15.634624263169957
    vertex 507.7940707546626 -54.14829270044574 15.634634404412575
    vertex 524.2940694030301 -54.14827902163673 15.634634404407542
  endloop
endfacet
facet normal -2.707148135449891e-12 2.8974964527240726e-06 -0.9999999999958022
  outer loop
    vertex 507.7940707546626 -54.14829270044574 15.634634404412575
    vertex 524.2940724917937 -57.64827902162042 15.634624263169957
    vertex 507.79407249179866 -57.64829270043059 15.634624263174992
  endloop
endfacet
facet normal -0.999999999999877 -4.963245734032774e-07 1.7243972525382346e-10
  outer loop
    vertex 542.0051351756877 -57.6482633915388 15.634624263164207
    vertex 542.0051334369806 -54.14823680869838 6.599977919839466
    vertex 542.0051351741166 -57.64823680868323 6.599967778601881
  endloop
endfacet
facet normal -0.999999999999877 -4.963245734032774e-07 1.7243972525382346e-10
  outer loop
    vertex 542.0051334369806 -54.14823680869838 6.599977919839466
    vertex 542.0051351756877 -57.6482633915388 15.634624263164207
    vertex 542.0051334385518 -54.14826339155394 15.634634404401792
  endloop
endfacet
facet normal 0.999999999999877 4.963245734032774e-07 -1.7243972525381692e-10
  outer loop
    vertex 545.0051334369796 -54.14823416118674 6.59997791983849
    vertex 545.0051351756869 -57.64826074402716 15.634624263163232
    vertex 545.0051351741157 -57.648234161171594 6.599967778600905
  endloop
endfacet
facet normal 0.999999999999877 4.963245734032774e-07 -1.7243972525381692e-10
  outer loop
    vertex 545.0051351756869 -57.64826074402716 15.634624263163232
    vertex 545.0051334369796 -54.14823416118674 6.59997791983849
    vertex 545.0051334385507 -54.148260744042304 15.634634404400817
  endloop
endfacet
facet normal -8.825038958722063e-07 0.999999999995282 2.9423205492657253e-06
  outer loop
    vertex 527.2940738434204 -57.64827637410762 15.634624263168984
    vertex 542.0051351741166 -57.64823680868323 6.599967778601881
    vertex 527.2940738418492 -57.648249791252326 6.599967778560352
  endloop
endfacet
facet normal -8.825038958722063e-07 0.999999999995282 2.9423205492657253e-06
  outer loop
    vertex 542.0051351741166 -57.64823680868323 6.599967778601881
    vertex 527.2940738434204 -57.64827637410762 15.634624263168984
    vertex 542.0051351756877 -57.6482633915388 15.634624263164207
  endloop
endfacet
facet normal 8.179355715267475e-14 -2.8974964531282644e-06 0.9999999999958022
  outer loop
    vertex 545.0051351741157 -57.648234161171594 6.599967778600905
    vertex 561.5051334369946 -54.14823995578943 6.599977919820352
    vertex 545.0051334369796 -54.14823416118674 6.59997791983849
  endloop
endfacet
facet normal 8.179355715267475e-14 -2.8974964531282644e-06 0.9999999999958022
  outer loop
    vertex 561.5051334369946 -54.14823995578943 6.599977919820352
    vertex 545.0051351741157 -57.648234161171594 6.599967778600905
    vertex 561.5051351741306 -57.64823995577429 6.599967778582765
  endloop
endfacet
facet normal -2.881679239948922e-12 2.8974964523210996e-06 -0.9999999999958022
  outer loop
    vertex 542.0051351756877 -57.6482633915388 15.634624263164207
    vertex 527.2940707546568 -54.14827637412393 15.634634404406567
    vertex 542.0051334385518 -54.14826339155394 15.634634404401792
  endloop
endfacet
facet normal -2.881679239948922e-12 2.8974964523210996e-06 -0.9999999999958022
  outer loop
    vertex 527.2940707546568 -54.14827637412393 15.634634404406567
    vertex 542.0051351756877 -57.6482633915388 15.634624263164207
    vertex 527.2940738434204 -57.64827637410762 15.634624263168984
  endloop
endfacet
facet normal 0.9999999999996108 8.825038810575258e-07 -1.7130096493942164e-10
  outer loop
    vertex 527.2940707530857 -54.14824979126864 6.599977919797933
    vertex 527.2940738434204 -57.64827637410762 15.634624263168984
    vertex 527.2940738418492 -57.648249791252326 6.599967778560352
  endloop
endfacet
facet normal 0.9999999999996108 8.825038810575258e-07 -1.7130096493942164e-10
  outer loop
    vertex 527.2940738434204 -57.64827637410762 15.634624263168984
    vertex 527.2940707530857 -54.14824979126864 6.599977919797933
    vertex 527.2940707546568 -54.14827637412393 15.634634404406567
  endloop
endfacet
facet normal -0.9999999999996108 -8.825038810575258e-07 1.7130096493945108e-10
  outer loop
    vertex 524.2940724917937 -57.64827902162042 15.634624263169957
    vertex 524.2940694014591 -54.14825243878144 6.599977919798909
    vertex 524.2940724902227 -57.64825243876512 6.599967778561324
  endloop
endfacet
facet normal -0.9999999999996108 -8.825038810575258e-07 1.7130096493945108e-10
  outer loop
    vertex 524.2940694014591 -54.14825243878144 6.599977919798909
    vertex 524.2940724917937 -57.64827902162042 15.634624263169957
    vertex 524.2940694030301 -54.14827902163673 15.634634404407542
  endloop
endfacet
facet normal -2.2387493166956766e-07 0.9999999999917839 4.047495236711958e-06
  outer loop
    vertex 507.79407249179866 -57.64829270043059 15.634624263174992
    vertex 524.2940724902227 -57.64825243876512 6.599967778561324
    vertex 507.79407249024854 -57.64824614782771 6.599967778565972
  endloop
endfacet
facet normal -2.2387493166956766e-07 0.9999999999917839 4.047495236711958e-06
  outer loop
    vertex 524.2940724902227 -57.64825243876512 6.599967778561324
    vertex 507.79407249179866 -57.64829270043059 15.634624263174992
    vertex 524.2940724917937 -57.64827902162042 15.634624263169957
  endloop
endfacet
facet normal -8.229852347007942e-13 -2.8974964531293584e-06 0.9999999999958022
  outer loop
    vertex 507.79407249024854 -57.64824614782771 6.599967778565972
    vertex 524.2940694014591 -54.14825243878144 6.599977919798909
    vertex 507.7940707531126 -54.148246147842855 6.599977919803559
  endloop
endfacet
facet normal -8.229852347007942e-13 -2.8974964531293584e-06 0.9999999999958022
  outer loop
    vertex 524.2940694014591 -54.14825243878144 6.599977919798909
    vertex 507.79407249024854 -57.64824614782771 6.599967778565972
    vertex 524.2940724902227 -57.64825243876512 6.599967778561324
  endloop
endfacet
facet normal -2.660655524052863e-13 -2.8974964523232693e-06 0.9999999999958022
  outer loop
    vertex 527.2940707530857 -54.14824979126864 6.599977919797933
    vertex 542.0051351741166 -57.64823680868323 6.599967778601881
    vertex 542.0051334369806 -54.14823680869838 6.599977919839466
  endloop
endfacet
facet normal -2.660655524052863e-13 -2.8974964523232693e-06 0.9999999999958022
  outer loop
    vertex 542.0051351741166 -57.64823680868323 6.599967778601881
    vertex 527.2940707530857 -54.14824979126864 6.599977919797933
    vertex 527.2940738418492 -57.648249791252326 6.599967778560352
  endloop
endfacet
endsolid NewPCBCase
